<svg width="28" height="28" viewBox="0 0 28 28" fill="none" xmlns="http://www.w3.org/2000/svg">
<rect width="28" height="28" rx="14" fill="white"/>
<rect width="28" height="28" rx="14" fill="#FFE7D9" fill-opacity="0.3"/>
<path d="M21.5833 14.5834C21.5833 10.3834 18.2 7.00004 14 7.00004C9.8 7.00004 6.41666 10.3834 6.41666 14.5834C6.41666 18.7834 9.8 22.1667 14 22.1667C18.2 22.1667 21.5833 18.7834 21.5833 14.5834ZM14.5833 20.9417V20.4167C14.5833 20.0667 14.35 19.8334 14 19.8334C13.65 19.8334 13.4167 20.0667 13.4167 20.4167V20.9417C10.325 20.65 7.87499 18.2 7.64166 15.1667H8.16666C8.51666 15.1667 8.75 14.9334 8.75 14.5834C8.75 14.2334 8.51666 14 8.16666 14H7.64166C7.93333 10.9084 10.3833 8.45837 13.4167 8.22504V8.75004C13.4167 9.10004 13.65 9.33337 14 9.33337C14.35 9.33337 14.5833 9.10004 14.5833 8.75004V8.22504C17.675 8.51671 20.125 10.9667 20.3583 14H19.8333C19.4833 14 19.25 14.2334 19.25 14.5834C19.25 14.9334 19.4833 15.1667 19.8333 15.1667H20.3583C20.125 18.2584 17.675 20.7084 14.5833 20.9417ZM6.41666 9.33337C6.59166 9.33337 6.70833 9.27504 6.82499 9.15837L9.15833 6.82504C9.39166 6.59171 9.39166 6.24171 9.15833 6.00837C8.92499 5.77504 8.575 5.77504 8.34166 6.00837L6.00833 8.34171C5.77499 8.57504 5.77499 8.92504 6.00833 9.15837C6.12499 9.27504 6.24166 9.33337 6.41666 9.33337ZM19.6583 6.00837C19.425 5.77504 19.075 5.77504 18.8417 6.00837C18.6083 6.24171 18.6083 6.59171 18.8417 6.82504L21.175 9.15837C21.2917 9.27504 21.4083 9.33337 21.5833 9.33337C21.7583 9.33337 21.875 9.27504 21.9917 9.15837C22.225 8.92504 22.225 8.57504 21.9917 8.34171L19.6583 6.00837Z" fill="#152745"/>
<path d="M16.3333 14H14.5833V11.0833C14.5833 10.7333 14.35 10.5 14 10.5C13.65 10.5 13.4167 10.7333 13.4167 11.0833V14.5833C13.4167 14.9333 13.65 15.1667 14 15.1667H16.3333C16.6833 15.1667 16.9167 14.9333 16.9167 14.5833C16.9167 14.2333 16.6833 14 16.3333 14Z" fill="#FC6603"/>
</svg>
