<svg width="28" height="28" viewBox="0 0 28 28" fill="none" xmlns="http://www.w3.org/2000/svg">
<rect width="28" height="28" rx="14" fill="white"/>
<rect width="28" height="28" rx="14" fill="#FFE7D9" fill-opacity="0.3"/>
<g clip-path="url(#clip0_276_629)">
<path d="M12.4162 8.28369C12.5274 8.2837 12.629 8.3209 12.7033 8.39502C12.7776 8.46934 12.8156 8.57174 12.8156 8.68311V13.063L16.4484 19.3433L16.4514 19.3481C17.1424 20.6709 16.1796 22.2054 14.7355 22.2056H6.75995C5.31432 22.2056 4.38217 20.6702 5.04315 19.3774L5.04608 19.3716L5.14764 19.4302L5.04706 19.3716L8.70721 13.0649V8.68311C8.70721 8.57174 8.7452 8.46934 8.81952 8.39502C8.89373 8.32085 8.99548 8.28379 9.10663 8.28369H12.4162ZM5.75702 19.772C5.37752 20.4873 5.89007 21.4067 6.75995 21.4067H14.7355C15.6085 21.4066 16.1471 20.4821 15.7629 19.7388V19.7378L14.2726 17.1997H7.25018L5.75702 19.772ZM9.50702 13.1802C9.50702 13.2061 9.50655 13.2377 9.50116 13.27C9.49523 13.3053 9.48386 13.3378 9.466 13.3735L9.4621 13.3804L7.6994 16.3726H13.798L12.0607 13.3511L12.0568 13.3452C12.039 13.3095 12.0276 13.277 12.0217 13.2417C12.0163 13.2093 12.0168 13.1778 12.0168 13.1519V9.08252H9.50702V13.1802Z" fill="#152745" stroke="#152745" stroke-width="0.233333"/>
<path d="M17.9096 7.17017C18.8099 6.43683 20.1457 6.48925 20.9838 7.32739C21.8777 8.2214 21.8777 9.68141 20.9838 10.5754L17.8442 13.7151C16.9502 14.6089 15.4903 14.6087 14.5961 13.6858C13.7025 12.7917 13.7023 11.3326 14.5961 10.4387H14.5971L17.7358 7.32739L17.9096 7.17017ZM15.1577 11.0276L15.1557 11.0295C14.5543 11.6048 14.5517 12.5476 15.1577 13.1536C15.7343 13.7301 16.707 13.7302 17.2836 13.1536L18.558 11.8782L16.4321 9.7522L15.1577 11.0276ZM20.394 7.88892C19.8173 7.31225 18.8447 7.31225 18.268 7.88892L16.9926 9.16333L19.1186 11.2893L20.394 10.0149C20.9706 9.43825 20.9706 8.46559 20.394 7.88892Z" fill="#FC6603" stroke="#FC6603" stroke-width="0.233333"/>
<path d="M18.7132 14.2129C19.2909 13.742 20.1478 13.7756 20.6859 14.3135C21.2597 14.8876 21.2597 15.8253 20.6859 16.3994L18.7318 18.3545C18.1577 18.9288 17.2198 18.9292 16.6458 18.3359V18.335C16.0738 17.7607 16.0737 16.8255 16.6468 16.252H16.6478L18.6019 14.3135L18.7132 14.2129ZM17.0589 16.6816L17.057 16.6826C16.701 17.0233 16.6984 17.5827 17.0589 17.9434C17.4007 18.2851 17.9778 18.2851 18.3197 17.9434L19.0824 17.1797L17.8206 15.918L17.0589 16.6816ZM20.2572 14.7256C19.9153 14.3836 19.3373 14.3836 18.9954 14.7256L18.2327 15.4883L19.4935 16.75L20.2572 15.9873C20.5988 15.6452 20.5989 15.0676 20.2572 14.7256Z" fill="#FC6603" stroke="#FC6603" stroke-width="0.233333"/>
</g>
<defs>
<clipPath id="clip0_276_629">
<rect width="18.6667" height="18.6667" fill="white" transform="translate(4.66667 4.66663)"/>
</clipPath>
</defs>
</svg>
