<svg width="47" height="48" viewBox="0 0 47 48" fill="none" xmlns="http://www.w3.org/2000/svg">
<rect x="1.94122" y="2.44135" width="43.1176" height="43.1176" rx="6.5" fill="white"/>
<rect x="1.94122" y="2.44135" width="43.1176" height="43.1176" rx="6.5" stroke="#D5EEFE" stroke-width="3"/>
<path d="M35.2076 14.7978C35.1457 13.8414 34.5681 12.9942 33.7024 12.583L22.4862 7.25604C21.7679 6.9149 20.9343 6.9149 20.216 7.25604L8.99978 12.583C8.13407 12.9942 7.5565 13.8414 7.49463 14.7978C6.44256 31.0603 16.8699 36.9857 20.2881 38.4825C20.966 38.7794 21.7362 38.7794 22.4141 38.4825C25.8323 36.9857 36.2596 31.0603 35.2076 14.7978Z" fill="url(#paint0_linear_191_1363)"/>
<path d="M17.9584 9.61021C17.8578 9.61021 17.7614 9.55354 17.7153 9.45665C17.6516 9.32247 17.7087 9.16208 17.8429 9.09838L20.4931 7.83972C20.6274 7.77602 20.7877 7.8331 20.8513 7.96724C20.915 8.10141 20.858 8.2618 20.7238 8.3255L18.0736 9.58416C18.0363 9.60186 17.9971 9.61021 17.9584 9.61021Z" fill="url(#paint1_linear_191_1363)"/>
<path d="M8.35234 18.3876C8.20802 18.3876 8.08865 18.2732 8.08377 18.1278C8.04811 17.0666 8.06681 15.9603 8.13933 14.8394C8.18597 14.1187 8.62186 13.4777 9.27695 13.1665L16.8222 9.58294C16.9564 9.51912 17.1167 9.57631 17.1805 9.71045C17.2442 9.84463 17.1871 10.005 17.053 10.0687L9.50771 13.6523C9.02871 13.8798 8.70999 14.348 8.67596 14.8742C8.6046 15.9775 8.58616 17.0661 8.62124 18.1097C8.62622 18.2581 8.50995 18.3825 8.36154 18.3875C8.35844 18.3876 8.35539 18.3876 8.35234 18.3876Z" fill="url(#paint2_linear_191_1363)"/>
<path d="M32.4953 15.4322C32.4829 15.1898 32.3386 14.9734 32.1193 14.8692L21.634 9.88939C21.455 9.80437 21.2472 9.80437 21.0682 9.88939L10.583 14.8692C10.3637 14.9734 10.2194 15.1898 10.207 15.4322C9.89691 21.4987 11.2981 26.5603 14.3747 30.4834C16.7203 33.4744 19.4642 35.0773 21.0721 35.8251C21.2492 35.9074 21.453 35.9075 21.6302 35.8251C23.2381 35.0773 25.982 33.4744 28.3275 30.4834C31.4041 26.5603 32.8054 21.4986 32.4953 15.4322Z" fill="#7D97F4"/>
<path d="M26.9595 27.5258H22.419C21.8697 27.6117 21.7965 28.1747 21.7965 28.4932L21.8331 29.8558L22.5654 29.9145L22.6021 28.67C22.6021 28.3515 22.6813 28.2128 23.0048 28.2128H26.4285C26.7521 28.2128 26.7138 28.3915 26.7138 28.71V29.8818L27.5296 29.8635V28.1333C27.5296 27.8148 27.2831 27.5258 26.9595 27.5258Z" fill="url(#paint3_linear_191_1363)"/>
<path d="M32.3056 29.2877H30.492V39.506H32.3056C32.8516 39.506 33.2827 39.0893 33.2827 38.5433V30.2678C33.2827 29.7218 32.8516 29.2877 32.3056 29.2877Z" fill="url(#paint4_linear_191_1363)"/>
<path d="M31.5963 39.5306H17.8922C17.7026 39.5306 17.5489 39.3769 17.5489 39.1874V29.621C17.5489 29.4314 17.7026 29.2778 17.8922 29.2778H31.5963C31.7858 29.2778 31.9395 29.4314 31.9395 29.621V39.1874C31.9395 39.3769 31.7858 39.5306 31.5963 39.5306Z" fill="url(#paint5_linear_191_1363)"/>
<path d="M23.2543 27.5202L20.0354 27.3966C19.519 27.3768 19.1133 26.9474 19.1229 26.4307L19.3405 14.6754C19.3504 14.1416 19.7985 13.7209 20.3319 13.7448L23.3957 13.8819C23.9048 13.9047 24.305 14.3255 24.3023 14.8351L24.2398 26.5769C24.2369 27.1133 23.7903 27.5407 23.2543 27.5202Z" fill="white"/>
<path d="M14.6822 22.0309L14.6992 18.6473C14.7014 18.2135 15.0577 17.8651 15.4914 17.8726L27.8162 18.0863C28.2314 18.0935 28.5679 18.4253 28.581 18.8404L28.6867 22.1979C28.7006 22.6419 28.3409 23.0077 27.8966 23.001L15.4492 22.8135C15.0222 22.807 14.6801 22.4579 14.6822 22.0309Z" fill="white"/>
<path d="M27.2962 29.7769L27.1482 29.7911C26.9411 29.8211 26.724 29.6933 26.6642 29.5056L26.6429 29.4387C26.583 29.251 26.7036 29.0759 26.9112 29.0478L27.1592 29.0224C27.3632 28.9947 27.8763 29.0733 27.9352 29.2581L27.9562 29.3241C28.0151 29.5089 27.4996 29.7474 27.2962 29.7769Z" fill="url(#paint6_linear_191_1363)"/>
<path d="M31.4588 37.7553L29.2575 36.951C28.7064 36.7497 28.1978 36.4268 27.7894 36.0171C27.3785 35.6048 27.0713 35.107 26.9032 34.5794L25.73 30.8985C25.5009 30.1797 25.9392 29.5021 26.7014 29.3436C26.762 29.331 26.8222 29.3669 26.8409 29.4258L26.8555 29.4716C26.8769 29.5387 26.8367 29.6093 26.7683 29.6264C26.1924 29.7701 25.8683 30.295 26.045 30.8496L27.2139 34.5169C27.5257 35.4952 28.3352 36.3089 29.3623 36.6873L31.5567 37.4957L31.4588 37.7553Z" fill="#7D97F4"/>
<path d="M31.5823 37.8603C31.5319 37.8731 31.4762 37.8712 31.4225 37.8517L29.2186 37.0489C28.6497 36.8417 28.1246 36.5089 27.7029 36.0863C27.2784 35.661 26.9612 35.1473 26.7877 34.6026C26.7445 34.4674 26.8313 34.3336 26.9809 34.304C27.13 34.2745 27.2852 34.3596 27.328 34.494C27.6289 35.4381 28.4097 36.2239 29.4008 36.5902L31.5927 37.4001C31.7261 37.4494 31.7963 37.5899 31.7497 37.7143C31.7217 37.789 31.6579 37.8411 31.5823 37.8603Z" fill="url(#paint7_linear_191_1363)"/>
<path d="M32.2831 37.5467L32.0497 37.3721L33.3651 35.7549C33.9428 35.0447 34.1109 34.089 33.8236 33.1876L32.7466 29.8084C32.572 29.2605 31.9654 28.8807 31.3868 28.9629L31.3035 28.7012C32.0317 28.6003 32.7929 29.0792 33.0122 29.7672L34.0855 33.135C34.2394 33.6177 34.2765 34.1255 34.1926 34.6055C34.1082 35.0883 33.9008 35.5457 33.5908 35.9291L32.2831 37.5467Z" fill="#7D97F4"/>
<path d="M32.2406 37.6926C32.1661 37.7115 32.082 37.6972 32.0145 37.6469C31.9019 37.5629 31.8788 37.4109 31.9629 37.3077L33.2812 35.6907C33.8408 35.0043 34.004 34.0798 33.726 33.2076C33.6864 33.0834 33.7569 32.9624 33.883 32.9375C34.0087 32.9126 34.1422 32.9925 34.1815 33.116C34.3399 33.613 34.3783 34.1357 34.2922 34.63C34.2056 35.1272 33.9924 35.5985 33.6736 35.9937L32.3687 37.6115C32.3354 37.6527 32.2901 37.68 32.2406 37.6926Z" fill="url(#paint8_linear_191_1363)"/>
<path d="M31.0259 29.2255L31.2882 29.1918C31.4745 29.1649 31.5791 28.9997 31.5228 28.8228L31.5026 28.7596C31.4462 28.5827 31.2497 28.4597 31.0629 28.4851L30.8381 28.5079C30.6481 28.5337 30.2621 28.7454 30.3193 28.925L30.3397 28.989C30.3941 29.269 30.8364 29.2529 31.0259 29.2255Z" fill="url(#paint9_linear_191_1363)"/>
<path d="M31.9559 37.9179C31.6607 37.9935 31.3325 37.9726 31.0268 37.8402L30.5951 37.6533C30.4082 37.5724 30.3215 37.3674 30.4021 37.1961C30.4823 37.0254 30.698 36.9538 30.8834 37.0354L31.3115 37.2239C31.5955 37.3489 31.9229 37.2689 32.0905 37.0354L32.345 36.681C32.4516 36.5326 32.6685 36.5013 32.8294 36.6103C32.9898 36.7191 33.0347 36.9268 32.9297 37.0751L32.6792 37.4293C32.5046 37.6761 32.2462 37.8437 31.9559 37.9179Z" fill="url(#paint10_linear_191_1363)"/>
<path d="M32.2538 38.8455C32.0657 38.8961 31.8657 38.79 31.8078 38.6085L31.5107 37.6764C31.4529 37.4949 31.5601 37.3097 31.7494 37.2629C31.9378 37.2164 32.1364 37.3247 32.1937 37.5047L32.4883 38.4288C32.5456 38.6088 32.441 38.7953 32.2538 38.8455Z" fill="url(#paint11_linear_191_1363)"/>
<path d="M30.6709 28.8956C30.7091 28.9963 30.682 29.0999 30.6104 29.1271C30.5388 29.1543 30.4498 29.0948 30.4115 28.9941C30.3733 28.8935 30.4004 28.7898 30.472 28.7626C30.5436 28.7354 30.6326 28.795 30.6709 28.8956Z" fill="url(#paint12_linear_191_1363)"/>
<path d="M39.5798 39.4938C39.5849 39.8458 38.6317 40.1311 37.4621 40.1311C36.2925 40.1311 35.3832 39.8436 35.3443 39.4938C35.2757 38.8761 36.2925 38.8565 37.4621 38.8565C38.6317 38.8565 39.57 38.8075 39.5798 39.4938Z" fill="url(#paint13_linear_191_1363)"/>
<path d="M39.5504 39.3079C39.5504 39.6181 38.6317 39.8569 37.4621 39.8569C36.2925 39.8569 35.3443 39.6055 35.3443 39.2953C35.3443 38.9852 36.2925 38.7337 37.4621 38.7337C38.6317 38.7337 39.5504 38.9977 39.5504 39.3079Z" fill="#7D97F4"/>
<path d="M29.475 41.0004C30.3026 41.0004 31.2787 40.8687 32.2125 40.6026C33.4898 40.2385 34.1385 39.2043 34.949 38.679C35.5968 38.2591 35.9387 38.789 36.7484 38.9549L36.9404 38.655C36.0496 38.559 35.5574 37.8817 34.733 38.4151C33.9173 38.9429 33.3714 40.0146 32.1407 40.3654C30.1647 40.9286 28.1823 40.8292 27.7297 40.3641C27.6512 40.2835 27.6314 40.2005 27.6673 40.103C27.8423 39.6281 28.8919 39.6362 29.9072 39.6439C30.4028 39.6477 30.9154 39.6517 31.3691 39.6042C31.8017 39.5589 32.1031 39.3959 32.2651 39.1196C32.58 38.5821 32.2293 37.825 32.2142 37.793L31.9825 37.896L32.0983 37.8445L31.9825 37.8958C31.9856 37.9025 32.2941 38.571 32.0432 38.9979C31.924 39.2009 31.688 39.3222 31.3418 39.3584C30.9027 39.4043 30.3977 39.4004 29.9092 39.3967C28.7539 39.3878 27.6632 39.3795 27.4274 40.0198C27.3586 40.2066 27.399 40.3844 27.5444 40.5338C27.8459 40.8436 28.5721 41.0004 29.475 41.0004Z" fill="url(#paint14_linear_191_1363)"/>
<path d="M38.3352 39.3062C37.9945 39.5146 36.9289 39.5227 36.5673 39.3206C36.5223 39.2954 36.4705 39.2011 36.4775 39.1461C36.5327 38.7109 36.3933 38.247 36.2627 37.7855L38.629 37.7932C38.53 38.2972 38.3861 38.7187 38.3954 39.1396C38.3968 39.2055 38.3877 39.2741 38.3352 39.3062Z" fill="#91B3FA"/>
<path d="M38.6925 37.7875H36.2023V38.0583C36.2023 38.0697 36.2049 38.0805 36.2086 38.0905C36.2086 38.0905 36.2087 38.091 36.2087 38.0913C36.2087 38.2569 36.7646 38.3912 37.4504 38.3912C38.1361 38.3912 38.692 38.2569 38.692 38.0913C38.692 38.0864 38.6917 38.0815 38.6907 38.0766C38.6916 38.0716 38.6925 38.0665 38.6925 38.0613L38.6925 37.7875Z" fill="url(#paint15_linear_191_1363)"/>
<path d="M37.4503 38.1272C38.136 38.1272 38.6919 37.993 38.6919 37.8273C38.6919 37.6617 38.136 37.5274 37.4503 37.5274C36.7646 37.5274 36.2086 37.6617 36.2086 37.8273C36.2086 37.993 36.7646 38.1272 37.4503 38.1272Z" fill="url(#paint16_linear_191_1363)"/>
<path d="M38.4042 37.8754C38.4042 37.9971 37.8864 38.1003 37.3823 38.1003C36.8783 38.1003 36.4697 38.0016 36.4697 37.8799C36.4697 37.7581 36.8783 37.6594 37.3823 37.6594C37.8863 37.6594 38.4042 37.7536 38.4042 37.8754Z" fill="#7D97F4"/>
<defs>
<linearGradient id="paint0_linear_191_1363" x1="37.5071" y1="-18.3919" x2="17.178" y2="28.3101" gradientUnits="userSpaceOnUse">
<stop stop-color="#4F52FF"/>
<stop offset="1" stop-color="#4042E2"/>
</linearGradient>
<linearGradient id="paint1_linear_191_1363" x1="17.6893" y1="8.71193" x2="20.8774" y2="8.71193" gradientUnits="userSpaceOnUse">
<stop stop-color="#DAE3FE"/>
<stop offset="1" stop-color="#E9EFFD"/>
</linearGradient>
<linearGradient id="paint2_linear_191_1363" x1="8.06621" y1="13.9722" x2="17.2065" y2="13.9722" gradientUnits="userSpaceOnUse">
<stop stop-color="#DAE3FE"/>
<stop offset="1" stop-color="#E9EFFD"/>
</linearGradient>
<linearGradient id="paint3_linear_191_1363" x1="28.7268" y1="25.7167" x2="10.243" y2="40.1049" gradientUnits="userSpaceOnUse">
<stop stop-color="#E1473D"/>
<stop offset="1" stop-color="#E9605A"/>
</linearGradient>
<linearGradient id="paint4_linear_191_1363" x1="39.2941" y1="27.7687" x2="32.0264" y2="34.0182" gradientUnits="userSpaceOnUse">
<stop stop-color="#E1473D"/>
<stop offset="1" stop-color="#E9605A"/>
</linearGradient>
<linearGradient id="paint5_linear_191_1363" x1="29.6591" y1="27.1841" x2="22.0871" y2="38.3075" gradientUnits="userSpaceOnUse">
<stop stop-color="#FEBBBA"/>
<stop offset="1" stop-color="#FF928E"/>
</linearGradient>
<linearGradient id="paint6_linear_191_1363" x1="26.6576" y1="29.4849" x2="27.883" y2="29.0943" gradientUnits="userSpaceOnUse">
<stop stop-color="#09005D"/>
<stop offset="1" stop-color="#1A0F91"/>
</linearGradient>
<linearGradient id="paint7_linear_191_1363" x1="28.874" y1="33.7441" x2="29.019" y2="39.9641" gradientUnits="userSpaceOnUse">
<stop stop-color="#09005D"/>
<stop offset="1" stop-color="#1A0F91"/>
</linearGradient>
<linearGradient id="paint8_linear_191_1363" x1="32.7374" y1="33.3675" x2="32.8903" y2="39.9233" gradientUnits="userSpaceOnUse">
<stop stop-color="#09005D"/>
<stop offset="1" stop-color="#1A0F91"/>
</linearGradient>
<linearGradient id="paint9_linear_191_1363" x1="30.5202" y1="29.2079" x2="31.9274" y2="28.2082" gradientUnits="userSpaceOnUse">
<stop stop-color="#09005D"/>
<stop offset="1" stop-color="#1A0F91"/>
</linearGradient>
<linearGradient id="paint10_linear_191_1363" x1="33.0257" y1="37.1119" x2="30.4017" y2="37.5389" gradientUnits="userSpaceOnUse">
<stop stop-color="#09005D"/>
<stop offset="1" stop-color="#1A0F91"/>
</linearGradient>
<linearGradient id="paint11_linear_191_1363" x1="32.42" y1="37.9865" x2="31.5797" y2="38.1232" gradientUnits="userSpaceOnUse">
<stop stop-color="#09005D"/>
<stop offset="1" stop-color="#1A0F91"/>
</linearGradient>
<linearGradient id="paint12_linear_191_1363" x1="30.4115" y1="28.9941" x2="30.6709" y2="28.8956" gradientUnits="userSpaceOnUse">
<stop stop-color="#09005D"/>
<stop offset="1" stop-color="#1A0F91"/>
</linearGradient>
<linearGradient id="paint13_linear_191_1363" x1="35.3411" y1="39.4934" x2="39.5799" y2="39.4934" gradientUnits="userSpaceOnUse">
<stop stop-color="#09005D"/>
<stop offset="1" stop-color="#1A0F91"/>
</linearGradient>
<linearGradient id="paint14_linear_191_1363" x1="28.0531" y1="39.5186" x2="36.5741" y2="39.1578" gradientUnits="userSpaceOnUse">
<stop stop-color="#09005D"/>
<stop offset="1" stop-color="#1A0F91"/>
</linearGradient>
<linearGradient id="paint15_linear_191_1363" x1="36.2023" y1="38.0894" x2="38.6925" y2="38.0894" gradientUnits="userSpaceOnUse">
<stop stop-color="#09005D"/>
<stop offset="1" stop-color="#1A0F91"/>
</linearGradient>
<linearGradient id="paint16_linear_191_1363" x1="36.2086" y1="37.8273" x2="38.6919" y2="37.8273" gradientUnits="userSpaceOnUse">
<stop stop-color="#09005D"/>
<stop offset="1" stop-color="#1A0F91"/>
</linearGradient>
</defs>
</svg>
