<svg width="24" height="25" viewBox="0 0 24 25" fill="none" xmlns="http://www.w3.org/2000/svg">
<g clip-path="url(#clip0_284_146)">
<path d="M3.43677 1.02832H21.3402V24.4993H3.43677V1.02832Z" fill="#3C51D1"/>
<path d="M4.36127 3.3009H19.345V23.47H6.5507C5.34136 23.47 4.36106 22.4895 4.36127 21.2802V3.3009Z" fill="#2044B4"/>
<path d="M19.8143 2.82495V22.9943H6.71327C6.67919 22.9943 6.64511 22.9932 6.61082 22.9909C5.61379 22.9388 4.83184 22.1158 4.83057 21.1175V2.82495H19.8143Z" fill="white"/>
<path d="M21.3402 10.4717V13.7111L19.8142 15.2371V11.9977L21.3402 10.4717Z" fill="#0C1E88"/>
<path d="M19.8142 11.9971V15.2364L19.1341 15.9166L18.9863 16.0639L18.8361 16.214L18.4813 16.569L17.6771 18.3732L14.7394 18.9913L14.6987 19L14.3611 19.0711L14.4326 18.7296L14.4407 18.6917L15.0579 15.7551L16.863 14.9505L17.218 14.5959L17.2165 14.5944L17.3274 14.4833L18.2173 13.5934L18.4042 13.4071L19.8142 11.9971Z" fill="#FED5C5"/>
<path d="M2.99194 1.02832H3.4369V24.4993H2.99194V1.02832Z" fill="#6175E9"/>
<path d="M8.94409 1.02832H15.2275V2.38732H8.94409V1.02832Z" fill="#0C1E88"/>
<path d="M9.52631 0.500005H14.9551C15.1048 0.500005 15.2261 0.621299 15.2261 0.770958V1.92738H9.25367V0.772652C9.25324 0.700256 9.28182 0.630613 9.33305 0.579386C9.38427 0.528158 9.45371 0.499581 9.52631 0.500005Z" fill="#FF8C5F"/>
<path d="M9.52631 0.756841H14.9551C15.1048 0.756841 15.2261 0.878346 15.2261 1.02779V2.10357H9.25366V1.02906C9.25345 0.956669 9.28203 0.887237 9.33326 0.83601C9.38448 0.784994 9.45392 0.756417 9.52631 0.756841Z" fill="#FED5C5"/>
<path d="M19.8143 20.4922V22.9947H6.71329C6.67921 22.9947 6.64513 22.9936 6.61084 22.9913C7.66862 22.6156 8.37521 21.6147 8.37521 20.4922H19.8143Z" fill="#FED5C5"/>
<path d="M18.9468 22.9943H20.6445C21.754 22.9943 22.6534 22.0949 22.6534 20.9855H8.8066C8.8066 22.0947 7.90759 22.9939 6.79837 22.9943" fill="#FF8C5F"/>
<path d="M13.6289 1.39217C13.6294 1.42477 13.6228 1.45716 13.6101 1.48701C13.5972 1.51622 13.5788 1.54247 13.5559 1.56448C13.5106 1.61063 13.4486 1.63624 13.384 1.63603H11.0955C10.9977 1.63603 10.9092 1.5774 10.8714 1.48701C10.8584 1.45716 10.8521 1.42477 10.8523 1.39217C10.8525 1.25797 10.9613 1.14895 11.0955 1.14832H13.3857C13.5201 1.14874 13.6289 1.25776 13.6289 1.39217Z" fill="#030303"/>
<path d="M13.6101 1.48438C13.5972 1.51338 13.5788 1.53963 13.5559 1.56185C13.5106 1.60779 13.4486 1.63361 13.384 1.6334H11.0955C10.9977 1.6334 10.9092 1.57455 10.8713 1.48438C10.884 1.45516 10.9025 1.42892 10.9255 1.40669C10.9708 1.36245 11.032 1.33768 11.0955 1.33789H13.3857C13.4829 1.33768 13.5711 1.39505 13.6101 1.48438Z" fill="#2044B4"/>
<path d="M10.0596 7.34196H9.54583C9.39617 7.34196 9.27487 7.22066 9.27487 7.071C9.27487 6.92134 9.39617 6.80005 9.54583 6.80005H10.0596C10.2092 6.80005 10.3305 6.92134 10.3305 7.071C10.3305 7.22066 10.2092 7.34196 10.0596 7.34196Z" fill="#383838"/>
<path d="M17.7189 7.34196H11.1618C11.0122 7.34196 10.8909 7.22066 10.8909 7.071C10.8909 6.92134 11.0122 6.80005 11.1618 6.80005H17.7189C17.8686 6.80005 17.9899 6.92134 17.9899 7.071C17.9899 7.22066 17.8686 7.34196 17.7189 7.34196Z" fill="#383838"/>
<path d="M10.0596 10.3908H9.54583C9.39617 10.3908 9.27487 10.2695 9.27487 10.1198C9.27487 9.97017 9.39617 9.84888 9.54583 9.84888H10.0596C10.2092 9.84888 10.3305 9.97017 10.3305 10.1198C10.3305 10.2695 10.2092 10.3908 10.0596 10.3908Z" fill="#383838"/>
<path d="M17.7189 10.3908H11.1618C11.0122 10.3908 10.8909 10.2695 10.8909 10.1198C10.8909 9.97017 11.0122 9.84888 11.1618 9.84888H17.7189C17.8686 9.84888 17.9899 9.97017 17.9899 10.1198C17.9899 10.2695 17.8686 10.3908 17.7189 10.3908Z" fill="#383838"/>
<path d="M17.7188 8.89469H16.8615C16.7118 8.89469 16.5905 8.7734 16.5905 8.62374C16.5905 8.47408 16.7118 8.35278 16.8615 8.35278H17.7188C17.8685 8.35278 17.9898 8.47408 17.9898 8.62374C17.9898 8.7734 17.8685 8.89469 17.7188 8.89469Z" fill="#383838"/>
<path d="M15.8893 8.89469H9.54583C9.39617 8.89469 9.27487 8.7734 9.27487 8.62374C9.27487 8.47408 9.39617 8.35278 9.54583 8.35278H15.8893C16.039 8.35278 16.1603 8.47408 16.1603 8.62374C16.1603 8.7734 16.039 8.89469 15.8893 8.89469Z" fill="#383838"/>
<path d="M15.9435 11.9228H9.56362C9.41396 11.9228 9.29266 11.8015 9.29266 11.6518C9.29266 11.5022 9.41396 11.3809 9.56362 11.3809H15.9435C16.0932 11.3809 16.2145 11.5022 16.2145 11.6518C16.2145 11.8015 16.0932 11.9228 15.9435 11.9228Z" fill="#383838"/>
<path d="M6.56038 18.1964C6.45835 18.1966 6.365 18.1395 6.31864 18.0487C6.27228 17.9579 6.28096 17.8486 6.34087 17.7663L7.55254 16.0961C7.60313 16.0261 7.61033 15.9336 7.57095 15.8565C7.53179 15.7794 7.45262 15.731 7.36604 15.7308H6.56038C6.41072 15.7308 6.28943 15.6095 6.28943 15.4598C6.28943 15.3101 6.41072 15.1889 6.56038 15.1889H7.36604C7.65647 15.1886 7.92214 15.3514 8.05401 15.6101C8.18589 15.8686 8.16155 16.1793 7.99093 16.4143L7.61816 16.9285L10.9124 14.8248C11.0385 14.7443 11.206 14.7814 11.2866 14.9073C11.3671 15.0335 11.33 15.2011 11.2039 15.2816L6.70602 18.1537C6.66262 18.1816 6.61203 18.1964 6.56038 18.1964Z" fill="#FCC924"/>
<path d="M10.7055 19.1943H6.5605C6.41084 19.1943 6.28955 19.073 6.28955 18.9233C6.28955 18.7736 6.41084 18.6523 6.5605 18.6523H10.7055C10.8551 18.6523 10.9764 18.7736 10.9764 18.9233C10.9764 19.073 10.8551 19.1943 10.7055 19.1943Z" fill="#383838"/>
<path d="M18.497 15.5885L16.8772 13.9688L16.7265 14.1188L16.7282 14.1199L16.3732 14.4749L14.5682 15.2795L13.9655 18.1474L13.9509 18.2162L13.9429 18.2541L13.8713 18.5955L14.2089 18.5246L14.2496 18.5159L17.1871 17.8976L17.9913 16.0936L18.3463 15.7386L18.3469 15.7391L18.497 15.5885Z" fill="#FF8C5F"/>
<path d="M18.1361 15.2359L17.6311 15.741L16.8269 17.5449L13.9656 18.147L14.5682 15.2791L16.3733 14.4745L16.8741 13.9736L18.1361 15.2359Z" fill="#FFB69F"/>
<path d="M23.9459 9.66766C23.9463 9.97122 23.8257 10.2625 23.6104 10.4767L19.3488 14.7381L17.729 13.1185L21.9906 8.85692C22.39 8.45747 23.0209 8.409 23.4766 8.74261C23.495 8.75552 23.5128 8.76971 23.5308 8.78431C23.7943 9.00171 23.9465 9.3258 23.9459 9.66766Z" fill="#3C51D1"/>
<path d="M23.6012 9.26538C23.602 9.56915 23.4812 9.86064 23.2659 10.0751L19.0049 14.3367L17.7585 13.0903L21.9907 8.8579C22.3902 8.45845 23.021 8.40997 23.4767 8.74359C23.5589 8.90531 23.6014 9.08397 23.6012 9.26538Z" fill="#6175E9"/>
<path d="M18.6448 15.441L17.0252 13.8212L17.9149 12.9315L19.5347 14.5513L18.6448 15.441Z" fill="#0C1E88"/>
<path d="M15.3116 17.396L14.1736 18.534L13.8696 18.598L13.9342 18.2902L15.0684 17.1566C15.1351 17.0897 15.2432 17.0897 15.3099 17.1566C15.3768 17.2233 15.3768 17.3315 15.3099 17.3984L15.3116 17.396Z" fill="#0C1E88"/>
<path d="M19.3478 14.7376L18.4581 15.6275L18.0933 15.2628H18.0927L16.8383 14.0077L17.728 13.118L19.3478 14.7376Z" fill="#EAAE06"/>
<path d="M18.983 14.3731L18.0933 15.2628H18.0927L16.8383 14.0077L17.728 13.118L18.983 14.3731Z" fill="#FCC924"/>
<path d="M16.2844 16.6427C16.2844 16.8976 16.078 17.1039 15.8233 17.1039C15.5687 17.1039 15.3621 16.8976 15.3621 16.6427C15.3621 16.388 15.5687 16.1816 15.8233 16.1816C16.078 16.1816 16.2844 16.388 16.2844 16.6427Z" fill="#0C1E88"/>
<path d="M16.0108 16.6434C16.0108 16.7471 15.9268 16.8309 15.8233 16.8309C15.7198 16.8309 15.6357 16.7471 15.6357 16.6434C15.6357 16.5399 15.7198 16.4561 15.8233 16.4561C15.9268 16.4561 16.0108 16.5399 16.0108 16.6434Z" fill="#FCC924"/>
<path d="M7.05624 5.51781V8.70745C7.05687 10.5916 5.96311 12.3048 4.25356 13.0969L3.71165 13.348C3.61005 13.3954 3.49256 13.3954 3.39074 13.348L3.1979 13.2595L2.84884 13.0969C1.13992 12.3044 0.0467939 10.5914 0.0478523 8.70745V5.51781C0.0493341 5.30888 0.218257 5.13996 0.427188 5.13848H1.86218C2.54677 5.13848 3.17081 4.74602 3.46716 4.12896C3.48219 4.09615 3.515 4.0752 3.55099 4.0752C3.58697 4.0752 3.61957 4.09615 3.6346 4.12896C3.93223 4.74432 4.55563 5.13551 5.23916 5.1353H6.67373C6.88499 5.1353 7.05624 5.30655 7.05624 5.51781Z" fill="#FE5E22"/>
<path d="M7.05609 5.51783V8.70746C7.05673 10.5916 5.96296 12.3048 4.25341 13.0969L3.71151 13.348C3.6099 13.3954 3.49242 13.3954 3.3906 13.348L3.19775 13.2595L3.54618 13.0969C5.25594 12.305 6.34992 10.5919 6.3495 8.70746V5.13574H6.67464C6.88526 5.13638 7.05588 5.30721 7.05609 5.51783Z" fill="#FF8C5F"/>
<path d="M5.50213 8.80089C5.50213 10.0735 4.4706 11.1051 3.19796 11.1051C3.09805 11.1051 2.99835 11.0987 2.89928 11.0862C1.75196 10.9359 0.893799 9.95816 0.893799 8.80089C0.893799 7.64363 1.75196 6.66586 2.89928 6.51578C2.99835 6.50266 3.09805 6.49609 3.19796 6.49609C4.4706 6.49652 5.50213 7.52826 5.50213 8.80089Z" fill="#030303"/>
<path d="M5.8554 8.80089C5.8554 10.0735 4.82387 11.1051 3.55124 11.1051C3.45132 11.1051 3.35162 11.0987 3.25255 11.0862C2.10523 10.9359 1.24707 9.95816 1.24707 8.80089C1.24707 7.64363 2.10523 6.66586 3.25255 6.51578C3.35162 6.50266 3.45132 6.49609 3.55124 6.49609C4.82387 6.49652 5.8554 7.52826 5.8554 8.80089Z" fill="white"/>
<path d="M5.29879 8.80057C5.29879 9.76626 4.51599 10.5489 3.5505 10.5489C2.58481 10.5486 1.80222 9.76584 1.80243 8.80014C1.80264 7.83466 2.58565 7.05207 3.55114 7.05249C4.51662 7.05249 5.299 7.83508 5.29879 8.80057Z" fill="#FCC924"/>
<path d="M3.53273 10.1028C3.46075 10.1028 3.39175 10.0745 3.34094 10.0237L2.14875 8.83146C2.04269 8.72562 2.04269 8.55395 2.14832 8.44811C2.25416 8.34205 2.42584 8.34205 2.53189 8.44789L3.53378 9.44979L6.19294 6.79063C6.29921 6.68796 6.46834 6.68945 6.5727 6.79402C6.67727 6.89838 6.67875 7.06751 6.57609 7.17378L3.72409 10.0237C3.67328 10.0743 3.60449 10.1028 3.53273 10.1028Z" fill="#060B6F"/>
</g>
<defs>
<clipPath id="clip0_284_146">
<rect width="24" height="24" fill="white" transform="translate(0 0.5)"/>
</clipPath>
</defs>
</svg>
