<svg width="47" height="48" viewBox="0 0 47 48" fill="none" xmlns="http://www.w3.org/2000/svg">
<rect x="1.94122" y="2.44135" width="43.1176" height="43.1176" rx="6.5" fill="white"/>
<rect x="1.94122" y="2.44135" width="43.1176" height="43.1176" rx="6.5" stroke="#E0FFD6" stroke-width="3"/>
<path d="M38.3596 15.362C38.2932 14.3364 37.6738 13.4278 36.7455 12.9869L24.7174 7.27432C23.9471 6.90848 23.0531 6.90848 22.2828 7.27432L10.2547 12.9869C9.32632 13.4278 8.70696 14.3364 8.64061 15.362C7.51238 32.8017 18.6945 39.156 22.3601 40.7612C23.0871 41.0795 23.9131 41.0795 24.64 40.7612C28.3056 39.156 39.4878 32.8017 38.3596 15.362Z" fill="url(#paint0_linear_191_1573)"/>
<path d="M19.8619 9.79848C19.754 9.79848 19.6505 9.73771 19.6012 9.6338C19.5329 9.48992 19.5941 9.31792 19.7379 9.24961L22.58 7.89984C22.724 7.83153 22.8959 7.89273 22.9642 8.03658C23.0325 8.18047 22.9713 8.35247 22.8274 8.42078L19.9854 9.77055C19.9454 9.78953 19.9033 9.79848 19.8619 9.79848Z" fill="white"/>
<path d="M9.56026 19.2112C9.40549 19.2112 9.27749 19.0884 9.27225 18.9325C9.23401 17.7946 9.25407 16.6081 9.33184 15.4061C9.38185 14.6332 9.84929 13.9458 10.5518 13.6121L18.6432 9.76915C18.7871 9.70072 18.9591 9.76205 19.0274 9.9059C19.0957 10.0498 19.0345 10.2218 18.8907 10.2901L10.7993 14.1331C10.2856 14.377 9.9438 14.8791 9.90731 15.4434C9.83078 16.6266 9.81101 17.794 9.84862 18.9132C9.85397 19.0723 9.72929 19.2057 9.57013 19.211C9.5668 19.2111 9.56353 19.2112 9.56026 19.2112Z" fill="white"/>
<path d="M35.4509 16.0426C35.4376 15.7826 35.2828 15.5505 35.0477 15.4388L23.8035 10.0985C23.6115 10.0073 23.3887 10.0073 23.1967 10.0985L11.9525 15.4388C11.7173 15.5505 11.5625 15.7826 11.5492 16.0426C11.2167 22.5481 12.7194 27.9761 16.0186 32.1832C18.534 35.3907 21.4765 37.1096 23.2008 37.9115C23.3908 37.9999 23.6094 37.9999 23.7993 37.9115C25.5236 37.1096 28.4661 35.3907 30.9815 32.1832C34.2808 27.9761 35.7834 22.5481 35.4509 16.0426Z" fill="white"/>
<path d="M25.7852 31.2296L22.3333 31.097C21.7795 31.0758 21.3445 30.6153 21.3547 30.0612L21.5881 17.4549C21.5988 16.8825 22.0793 16.4314 22.6513 16.457L25.9368 16.6041C26.4828 16.6285 26.912 17.0797 26.9091 17.6262L26.8421 30.218C26.8389 30.7932 26.36 31.2516 25.7852 31.2296Z" fill="url(#paint1_linear_191_1573)"/>
<path d="M16.3484 25.3655L16.3666 21.7369C16.3689 21.2717 16.751 20.8981 17.2162 20.9061L30.433 21.1353C30.8783 21.143 31.2392 21.4989 31.2532 21.944L31.3665 25.5445C31.3815 26.0207 30.9957 26.4129 30.5193 26.4058L17.1709 26.2047C16.713 26.1977 16.3461 25.8234 16.3484 25.3655Z" fill="url(#paint2_linear_191_1573)"/>
<defs>
<linearGradient id="paint0_linear_191_1573" x1="23.9769" y1="39.2802" x2="22.6899" y2="11.2232" gradientUnits="userSpaceOnUse">
<stop stop-color="#19936C"/>
<stop offset="1" stop-color="#6FD45C"/>
</linearGradient>
<linearGradient id="paint1_linear_191_1573" x1="24.2205" y1="30.483" x2="22.9255" y2="18.4044" gradientUnits="userSpaceOnUse">
<stop stop-color="#19936C"/>
<stop offset="1" stop-color="#6FD45C"/>
</linearGradient>
<linearGradient id="paint2_linear_191_1573" x1="24.692" y1="30.1064" x2="24.3138" y2="21.5586" gradientUnits="userSpaceOnUse">
<stop stop-color="#19936C"/>
<stop offset="1" stop-color="#6FD45C"/>
</linearGradient>
</defs>
</svg>
