<svg width="28" height="28" viewBox="0 0 28 28" fill="none" xmlns="http://www.w3.org/2000/svg">
<rect width="28" height="28" rx="14" fill="white"/>
<rect width="28" height="28" rx="14" fill="#FFE7D9" fill-opacity="0.3"/>
<path d="M15.1667 9.33329H14.5834V8.74996C14.5834 8.59525 14.5219 8.44688 14.4125 8.33748C14.3031 8.22808 14.1547 8.16663 14 8.16663C13.8453 8.16663 13.6969 8.22808 13.5875 8.33748C13.4781 8.44688 13.4167 8.59525 13.4167 8.74996V9.33329H12.8334C12.6786 9.33329 12.5303 9.39475 12.4209 9.50415C12.3115 9.61354 12.25 9.76192 12.25 9.91663C12.25 10.0713 12.3115 10.2197 12.4209 10.3291C12.5303 10.4385 12.6786 10.5 12.8334 10.5H13.4167V11.0833C13.4167 11.238 13.4781 11.3864 13.5875 11.4958C13.6969 11.6052 13.8453 11.6666 14 11.6666C14.1547 11.6666 14.3031 11.6052 14.4125 11.4958C14.5219 11.3864 14.5834 11.238 14.5834 11.0833V10.5H15.1667C15.3214 10.5 15.4698 10.4385 15.5792 10.3291C15.6886 10.2197 15.75 10.0713 15.75 9.91663C15.75 9.76192 15.6886 9.61354 15.5792 9.50415C15.4698 9.39475 15.3214 9.33329 15.1667 9.33329ZM12.0809 13.0025C12.0266 12.9478 11.9621 12.9044 11.891 12.8748C11.8199 12.8452 11.7437 12.8299 11.6667 12.8299C11.5897 12.8299 11.5134 12.8452 11.4424 12.8748C11.3713 12.9044 11.3067 12.9478 11.2525 13.0025C11.1994 13.0579 11.1578 13.1234 11.13 13.195C11.1001 13.2651 11.0843 13.3404 11.0834 13.4166C11.0829 13.4934 11.0976 13.5695 11.1267 13.6406C11.1557 13.7116 11.1985 13.7763 11.2525 13.8308C11.3341 13.9131 11.4384 13.9692 11.552 13.992C11.6656 14.0147 11.7834 14.0032 11.8904 13.9588C11.9974 13.9143 12.0887 13.839 12.1528 13.7425C12.2168 13.6459 12.2507 13.5325 12.25 13.4166C12.2491 13.3404 12.2332 13.2651 12.2034 13.195C12.1756 13.1234 12.134 13.0579 12.0809 13.0025ZM14.4142 13.0025C14.3575 12.9509 14.2924 12.9095 14.2217 12.88C14.1155 12.8353 13.9984 12.8231 13.8852 12.8449C13.7721 12.8667 13.6679 12.9215 13.5859 13.0025C13.5327 13.0579 13.4911 13.1234 13.4634 13.195C13.4335 13.2651 13.4176 13.3404 13.4167 13.4166C13.4162 13.4934 13.431 13.5695 13.46 13.6406C13.489 13.7116 13.5318 13.7763 13.5859 13.8308C13.6976 13.9374 13.8456 13.9978 14 14C14.0765 14.0019 14.1525 13.9859 14.2217 13.9533C14.2924 13.9238 14.3575 13.8823 14.4142 13.8308C14.5208 13.719 14.5812 13.5711 14.5834 13.4166C14.5824 13.3404 14.5666 13.2651 14.5367 13.195C14.5089 13.1234 14.4673 13.0579 14.4142 13.0025ZM16.7475 13.0025C16.6655 12.9215 16.5613 12.8667 16.4482 12.8449C16.335 12.8231 16.2179 12.8353 16.1117 12.88C16.041 12.9095 15.9759 12.9509 15.9192 13.0025C15.8661 13.0579 15.8245 13.1234 15.7967 13.195C15.7668 13.2651 15.7509 13.3404 15.75 13.4166C15.7493 13.5325 15.7832 13.6459 15.8472 13.7425C15.9113 13.839 16.0026 13.9143 16.1097 13.9588C16.2167 14.0032 16.3345 14.0147 16.4481 13.992C16.5617 13.9692 16.6659 13.9131 16.7475 13.8308C16.8016 13.7763 16.8444 13.7116 16.8734 13.6406C16.9024 13.5695 16.9171 13.4934 16.9167 13.4166C16.9158 13.3404 16.8999 13.2651 16.87 13.195C16.8423 13.1234 16.8006 13.0579 16.7475 13.0025ZM12.0809 15.3358C12.0266 15.2811 11.9621 15.2377 11.891 15.2081C11.8199 15.1785 11.7437 15.1632 11.6667 15.1632C11.5897 15.1632 11.5134 15.1785 11.4424 15.2081C11.3713 15.2377 11.3067 15.2811 11.2525 15.3358C11.1994 15.3913 11.1578 15.4567 11.13 15.5283C11.0974 15.5975 11.0814 15.6734 11.0834 15.75C11.0827 15.8658 11.1165 15.9793 11.1806 16.0758C11.2446 16.1724 11.336 16.2477 11.443 16.2921C11.55 16.3365 11.6678 16.3481 11.7814 16.3253C11.895 16.3025 11.9993 16.2464 12.0809 16.1641C12.1349 16.1096 12.1777 16.045 12.2067 15.9739C12.2357 15.9028 12.2505 15.8267 12.25 15.75C12.2491 15.6737 12.2332 15.5984 12.2034 15.5283C12.1766 15.4562 12.1349 15.3906 12.0809 15.3358ZM14.4142 15.3358C14.36 15.2811 14.2954 15.2377 14.2244 15.2081C14.1533 15.1785 14.077 15.1632 14 15.1632C13.923 15.1632 13.8468 15.1785 13.7757 15.2081C13.7046 15.2377 13.6401 15.2811 13.5859 15.3358C13.5327 15.3913 13.4911 15.4567 13.4634 15.5283C13.4335 15.5984 13.4176 15.6737 13.4167 15.75C13.416 15.8658 13.4499 15.9793 13.5139 16.0758C13.578 16.1724 13.6693 16.2477 13.7763 16.2921C13.8833 16.3365 14.0011 16.3481 14.1148 16.3253C14.2284 16.3025 14.3326 16.2464 14.4142 16.1641C14.4683 16.1096 14.511 16.045 14.5401 15.9739C14.5691 15.9028 14.5838 15.8267 14.5834 15.75C14.5824 15.6737 14.5666 15.5984 14.5367 15.5283C14.51 15.4562 14.4682 15.3906 14.4142 15.3358ZM16.7475 15.3358C16.6933 15.2811 16.6288 15.2377 16.5577 15.2081C16.4866 15.1785 16.4104 15.1632 16.3334 15.1632C16.2563 15.1632 16.1801 15.1785 16.109 15.2081C16.0379 15.2377 15.9734 15.2811 15.9192 15.3358C15.8661 15.3913 15.8245 15.4567 15.7967 15.5283C15.7668 15.5984 15.7509 15.6737 15.75 15.75C15.7493 15.8658 15.7832 15.9793 15.8472 16.0758C15.9113 16.1724 16.0026 16.2477 16.1097 16.2921C16.2167 16.3365 16.3345 16.3481 16.4481 16.3253C16.5617 16.3025 16.6659 16.2464 16.7475 16.1641C16.8016 16.1096 16.8444 16.045 16.8734 15.9739C16.9024 15.9028 16.9171 15.8267 16.9167 15.75C16.9158 15.6737 16.8999 15.5984 16.87 15.5283C16.8433 15.4562 16.8015 15.3906 16.7475 15.3358Z" fill="#FC6603"/>
<path d="M21.5833 21H19.8333V8.16671C19.8333 7.54787 19.5875 6.95438 19.1499 6.51679C18.7123 6.07921 18.1188 5.83337 17.5 5.83337H10.5C9.88116 5.83337 9.28766 6.07921 8.85008 6.51679C8.41249 6.95438 8.16666 7.54787 8.16666 8.16671V21H6.41666C6.26195 21 6.11358 21.0615 6.00418 21.1709C5.89479 21.2803 5.83333 21.4287 5.83333 21.5834C5.83333 21.7381 5.89479 21.8865 6.00418 21.9959C6.11358 22.1053 6.26195 22.1667 6.41666 22.1667H21.5833C21.738 22.1667 21.8864 22.1053 21.9958 21.9959C22.1052 21.8865 22.1667 21.7381 22.1667 21.5834C22.1667 21.4287 22.1052 21.2803 21.9958 21.1709C21.8864 21.0615 21.738 21 21.5833 21ZM12.8333 21V19.25C12.8333 19.0953 12.8948 18.947 13.0042 18.8376C13.1136 18.7282 13.262 18.6667 13.4167 18.6667H14.5833C14.738 18.6667 14.8864 18.7282 14.9958 18.8376C15.1052 18.947 15.1667 19.0953 15.1667 19.25V21H12.8333ZM16.3333 21V19.25C16.3333 18.7859 16.149 18.3408 15.8208 18.0126C15.4926 17.6844 15.0475 17.5 14.5833 17.5H13.4167C12.9525 17.5 12.5074 17.6844 12.1792 18.0126C11.851 18.3408 11.6667 18.7859 11.6667 19.25V21H9.33333V8.16671C9.33333 7.85729 9.45624 7.56054 9.67504 7.34175C9.89383 7.12296 10.1906 7.00004 10.5 7.00004H17.5C17.8094 7.00004 18.1062 7.12296 18.325 7.34175C18.5437 7.56054 18.6667 7.85729 18.6667 8.16671V21H16.3333Z" fill="#152745"/>
</svg>
