<svg width="28" height="28" viewBox="0 0 28 28" fill="none" xmlns="http://www.w3.org/2000/svg">
<rect width="28" height="28" rx="14" fill="white"/>
<rect width="28" height="28" rx="14" fill="#FFE7D9" fill-opacity="0.3"/>
<path d="M13.9996 5.68787C14.205 5.68787 14.3889 5.81115 14.4664 6.00134C14.6903 6.55211 15.8159 8.63228 20.5621 10.765C20.7483 10.8488 20.864 11.0358 20.8541 11.2396C20.8326 11.6718 20.6852 13.7781 19.7887 16.1C18.8919 18.4225 17.2384 20.9771 14.1959 22.2728C14.1334 22.2995 14.0661 22.3129 13.9996 22.3129C13.9332 22.3128 13.8667 22.2994 13.8043 22.2728C10.7617 20.9771 9.10827 18.4225 8.21152 16.1C7.31495 13.7779 7.1675 11.6715 7.14609 11.2396C7.13596 11.0355 7.25186 10.8488 7.43808 10.765C12.1843 8.63231 13.3099 6.55198 13.5338 6.00134C13.6113 5.81131 13.7943 5.688 13.9996 5.68787ZM13.9996 6.97986C13.3593 7.98271 11.785 9.72479 8.03769 11.4515C8.09548 12.1863 8.31448 14.0526 9.12167 16.0306C9.96115 18.0878 11.4305 20.2508 13.9996 21.4017C16.5688 20.2509 18.0379 18.0879 18.8775 16.0306C19.6847 14.0527 19.9037 12.1866 19.9615 11.4515C16.2142 9.72483 14.6398 7.98262 13.9996 6.97986Z" fill="#152745" stroke="#152745" stroke-width="0.291667"/>
<path d="M15.2542 10.6909C15.4872 10.691 15.6768 10.8808 15.677 11.1138V12.9058H17.469C17.7022 12.9058 17.8919 13.0964 17.8919 13.3296V15.8374C17.8919 16.0706 17.7022 16.2602 17.469 16.2603H15.677V18.0522C15.677 18.2855 15.4874 18.475 15.2542 18.4751H12.7454C12.5123 18.4749 12.3225 18.2853 12.3225 18.0522V16.2603H10.5305C10.2975 16.26 10.1077 16.0705 10.1077 15.8374V13.3296C10.1077 13.0965 10.2975 12.906 10.5305 12.9058H12.3225V11.1138C12.3228 10.8809 12.5125 10.6912 12.7454 10.6909H15.2542ZM13.052 13.2124C13.052 13.4456 12.8624 13.6352 12.6292 13.6353H10.8372V15.5317H12.6292C12.8624 15.5318 13.052 15.7214 13.052 15.9546V17.7466H14.9475V15.9546C14.9475 15.7215 15.1373 15.532 15.3704 15.5317H17.1624V13.6353H15.3704C15.1373 13.635 14.9475 13.4455 14.9475 13.2124V11.4204H13.052V13.2124Z" fill="#FC6603" stroke="#FC6603" stroke-width="0.145833"/>
</svg>
