<svg width="28" height="28" viewBox="0 0 28 28" fill="none" xmlns="http://www.w3.org/2000/svg">
<rect width="28" height="28" rx="14" fill="white"/>
<rect width="28" height="28" rx="14" fill="#FFE7D9" fill-opacity="0.3"/>
<path d="M9.93388 7.42493C10.1773 7.42493 10.3752 7.62214 10.3753 7.86536V9.10852C10.3753 9.15649 10.4163 9.19816 10.4642 9.19836H15.1087C15.1567 9.19836 15.1985 9.15655 15.1985 9.10852V7.86536C15.1986 7.62221 15.3956 7.42505 15.639 7.42493H17.263C18.1869 7.42502 18.9388 8.17686 18.9388 9.10071V16.6456C18.9388 16.7553 18.8973 16.8613 18.8235 16.9425C18.7126 17.0645 18.6018 17.2376 18.4759 17.4894C18.4012 17.6384 18.249 17.7325 18.0823 17.7325C17.9154 17.7325 17.7625 17.6386 17.6878 17.4894C17.526 17.1657 17.3865 16.9617 17.2308 16.838C17.0773 16.7164 16.9025 16.6681 16.6624 16.6681C16.1231 16.6683 15.684 17.1072 15.6839 17.6466C15.6839 18.1957 15.9522 18.7705 16.3665 19.3546C16.7802 19.9379 17.3346 20.5241 17.8987 21.0958C18.0085 21.2073 18.0516 21.3686 18.011 21.5197C17.9703 21.6704 17.8525 21.7891 17.7015 21.8302C17.559 21.8692 17.4112 21.8888 17.263 21.8888H8.31084C7.387 21.8888 6.63516 21.1378 6.63506 20.214V10.7579C6.63522 10.5148 6.83224 10.3176 7.07549 10.3175C7.31886 10.3175 7.51575 10.5148 7.51591 10.7579V20.214C7.51608 20.6516 7.87295 21.0079 8.31084 21.0079H16.596C16.1225 20.4944 15.6849 19.9664 15.3616 19.423C15.0202 18.8491 14.803 18.256 14.803 17.6466C14.8031 16.6211 15.6377 15.7872 16.6634 15.7872C17.3228 15.7873 17.7474 16.0546 18.0569 16.4269V9.10071C18.0569 8.66273 17.701 8.30579 17.263 8.30579H16.0804V9.10852C16.0803 9.64389 15.6441 10.0792 15.1087 10.0792H10.4651C9.92986 10.0792 9.49358 9.64391 9.49345 9.10852V8.30579H8.31084C7.87289 8.30579 7.51689 8.66272 7.51689 9.10071V9.46204C7.51689 9.70547 7.31895 9.90247 7.07549 9.90247C6.83218 9.90227 6.63506 9.70534 6.63506 9.46204V9.10071C6.63506 8.1768 7.38693 7.42493 8.31084 7.42493H9.93388Z" fill="#152745" stroke="#152745" stroke-width="0.103704"/>
<path d="M14 11.926L14.8889 12.963C14.8889 12.963 15.7248 11.6989 16.5926 10.8889" stroke="#FC6603" stroke-width="0.777778" stroke-linecap="round"/>
<path d="M12.963 15.037L13.8519 16.0741C13.8519 16.0741 14.6877 14.81 15.5556 14" stroke="#FC6603" stroke-width="0.777778" stroke-linecap="round"/>
<path d="M12.7867 5.65173C13.3856 5.65175 13.8948 6.03932 14.0787 6.57654H15.109C15.6444 6.5766 16.0797 7.01275 16.0797 7.54822V9.10876C16.0793 9.644 15.6441 10.0794 15.109 10.0795H10.4645C9.9293 10.0794 9.49401 9.64402 9.49376 9.10876V7.54822C9.49376 7.01278 9.92913 6.57656 10.4645 6.57654H11.4947C11.6786 6.03926 12.1878 5.65173 12.7867 5.65173ZM12.7867 6.53259C12.5197 6.53259 12.3026 6.75017 12.3024 7.01697C12.3024 7.26012 12.1052 7.45813 11.8619 7.45837H10.4645C10.4165 7.45837 10.3746 7.50006 10.3746 7.54822V9.10876C10.3749 9.15672 10.4166 9.19763 10.4645 9.19763H15.109C15.1568 9.1975 15.1986 9.15655 15.1988 9.10876V7.54822C15.1988 7.50019 15.157 7.45853 15.109 7.45837H13.7115C13.4682 7.45822 13.2711 7.26017 13.2711 7.01697C13.2709 6.75024 13.0537 6.53267 12.7867 6.53259Z" fill="#152745" stroke="#152745" stroke-width="0.103704"/>
<path d="M19.5022 15.7866C20.5276 15.7869 21.3616 16.6214 21.3616 17.647C21.3614 18.466 20.9804 19.3133 20.176 20.3101C20.0231 20.4993 19.7452 20.5294 19.5559 20.3765C19.3668 20.2237 19.3371 19.9467 19.4895 19.7573C20.1706 18.9133 20.4806 18.2437 20.4807 17.647C20.4807 17.1074 20.0408 16.6675 19.5012 16.6675C19.2613 16.6675 19.0871 16.7159 18.9338 16.8374C18.778 16.961 18.6387 17.165 18.4768 17.4888C18.4021 17.6381 18.2492 17.7319 18.0823 17.7319C17.9153 17.7319 17.7624 17.6381 17.6877 17.4888C17.5259 17.165 17.3866 16.961 17.2307 16.8374C17.0774 16.7159 16.9033 16.6675 16.6633 16.6675C16.1237 16.6675 15.6838 17.1073 15.6838 17.647C15.684 18.2159 15.9766 18.8181 16.4309 19.439C16.8758 20.0468 17.4713 20.6654 18.0823 21.2798C18.1681 21.1934 18.2544 21.1074 18.3391 21.021C18.5097 20.8475 18.7886 20.8449 18.9622 21.0151C19.1358 21.1855 19.1382 21.4645 18.968 21.6382C18.7789 21.8307 18.5862 22.024 18.3938 22.2163C18.3078 22.3023 18.1948 22.3452 18.0823 22.3452C17.9697 22.3452 17.8567 22.3023 17.7708 22.2163C17.0456 21.4913 16.3048 20.7496 15.7454 19.9917C15.1862 19.2342 14.8031 18.4533 14.803 17.647C14.803 16.6213 15.6376 15.7866 16.6633 15.7866C17.3413 15.7867 17.7707 16.0698 18.0823 16.4585C18.3939 16.0697 18.824 15.7866 19.5022 15.7866Z" fill="#FC6603" stroke="#FC6603" stroke-width="0.103704"/>
<path d="M12.7142 11.8741C12.8143 11.8741 12.8896 11.9573 12.9369 12.0558C12.9858 12.158 13.015 12.2954 13.015 12.4445C13.015 12.5935 12.9858 12.7309 12.9369 12.8331C12.8896 12.9316 12.8142 13.0147 12.7142 13.0148H9.06384C8.96379 13.0148 8.88844 12.9316 8.84119 12.8331C8.79221 12.7309 8.76307 12.5936 8.76306 12.4445C8.76306 12.2953 8.79223 12.158 8.84119 12.0558C8.88844 11.9573 8.96379 11.8741 9.06384 11.8741H12.7142Z" fill="#152745" stroke="#152745" stroke-width="0.103704"/>
<path d="M11.7396 14.9854C11.7863 14.9854 11.8243 15.0115 11.8519 15.0439C11.8797 15.0766 11.9023 15.1209 11.9203 15.1709C11.9565 15.2717 11.9779 15.4081 11.9779 15.5557C11.9779 15.703 11.9565 15.8387 11.9203 15.9395C11.9022 15.9896 11.8798 16.0347 11.8519 16.0674C11.8243 16.0998 11.7863 16.1259 11.7396 16.126H9.00134C8.95462 16.126 8.91668 16.0998 8.88904 16.0674C8.86121 16.0347 8.83873 15.9896 8.82068 15.9395C8.7845 15.8387 8.76307 15.7031 8.76306 15.5557C8.76306 15.4081 8.78442 15.2717 8.82068 15.1709C8.8387 15.1209 8.86129 15.0766 8.88904 15.0439C8.91668 15.0115 8.9546 14.9854 9.00134 14.9854H11.7396Z" fill="#152745" stroke="#152745" stroke-width="0.103704"/>
</svg>
