<svg width="47" height="48" viewBox="0 0 47 48" fill="none" xmlns="http://www.w3.org/2000/svg">
<rect x="1.94122" y="2.44135" width="43.1176" height="43.1176" rx="6.5" fill="white"/>
<rect x="1.94122" y="2.44135" width="43.1176" height="43.1176" rx="6.5" stroke="#FFEAB8" stroke-width="3"/>
<path d="M36.3528 21.0751C36.3323 21.0422 36.1803 21.034 36.0693 20.9642C35.9543 20.8943 35.7735 20.5574 35.7488 20.4916C35.7242 20.4259 35.9871 20.0355 35.9871 19.7479C35.9871 19.4603 35.3831 18.9713 35.2229 18.9343C35.0626 18.8974 33.9943 18.9631 33.8834 18.9795C33.7683 19.0001 33.0533 19.4069 33.0533 19.6246C33.0533 19.8424 33.2711 20.3149 33.5793 20.4711C33.8916 20.6272 34.701 20.6108 34.8161 20.6396C34.9352 20.6683 35.6543 21.9421 35.757 22.0119C35.8598 22.0859 36.1104 22.0736 36.1515 22.0654C36.1967 22.0571 36.3446 21.8476 36.3857 21.7654C36.4227 21.6791 36.4021 21.1614 36.3528 21.0751Z" fill="#263238"/>
<path d="M35.9173 19.5425C35.9173 19.7808 35.5968 20.1095 35.3585 20.1752C35.1201 20.241 34.1463 20.2369 33.8258 20.2163C33.5094 20.1958 33.1725 19.9287 33.0862 19.8013C33.0657 19.7315 33.0533 19.6739 33.0533 19.6246C33.0533 19.411 33.7683 19.0001 33.8834 18.9795C33.9943 18.9631 35.0626 18.8974 35.2229 18.9343C35.3502 18.9631 35.7488 19.2713 35.9173 19.5425Z" fill="#FFC727"/>
<path opacity="0.1" d="M35.9173 19.5425C35.9173 19.7808 35.5968 20.1095 35.3585 20.1752C35.1201 20.241 34.1463 20.2369 33.8258 20.2163C33.5094 20.1958 33.1725 19.9287 33.0862 19.8013C33.0657 19.7315 33.0533 19.6739 33.0533 19.6246C33.0533 19.411 33.7683 19.0001 33.8834 18.9795C33.9943 18.9631 35.0626 18.8974 35.2229 18.9343C35.3502 18.9631 35.7488 19.2713 35.9173 19.5425Z" fill="black"/>
<path d="M36.1516 22.0652L35.0833 20.4955L36.3529 21.8268L36.1516 22.0652Z" fill="white"/>
<path d="M33.4109 19.3653C33.4109 19.3653 33.8135 19.1105 33.9039 19.0818C33.9984 19.053 34.9476 19.0037 35.0832 19.0119" fill="white"/>
<path d="M18.4378 30.7798L22.9823 30.9483C22.9823 30.9483 22.859 24.752 20.069 24.5959C17.2832 24.4397 18.4378 30.7798 18.4378 30.7798Z" fill="#FFC727"/>
<path opacity="0.4" d="M18.4378 30.7798L22.9823 30.9483C22.9823 30.9483 22.859 24.752 20.069 24.5959C17.2832 24.4397 18.4378 30.7798 18.4378 30.7798Z" fill="black"/>
<path d="M6.50539 27.7314L10.4335 30.4598C10.4335 30.4598 9.50492 24.3662 7.81615 24.2635C6.12737 24.1566 6.50539 27.7314 6.50539 27.7314Z" fill="#FFC727"/>
<path opacity="0.4" d="M6.50539 27.7314L10.4335 30.4598C10.4335 30.4598 9.50492 24.3662 7.81615 24.2635C6.12737 24.1566 6.50539 27.7314 6.50539 27.7314Z" fill="black"/>
<path d="M25.5422 29.8757C25.5422 31.8152 24.2397 33.3971 22.6043 33.4916C22.5989 33.4943 22.5934 33.4957 22.5879 33.4957H20.5951V26.2557H22.6043V26.2598C24.2397 26.3585 25.5422 27.9404 25.5422 29.8757Z" fill="#263238"/>
<path opacity="0.2" d="M25.5422 29.8757C25.5422 31.8152 24.2397 33.3971 22.6043 33.4916C22.5989 33.4943 22.5934 33.4957 22.5879 33.4957H20.5951V26.2557H22.6043V26.2598C24.2397 26.3585 25.5422 27.9404 25.5422 29.8757Z" fill="black"/>
<path d="M17.501 29.876C17.501 31.8771 18.8857 33.5001 20.595 33.5001C22.3043 33.5001 23.6932 31.8771 23.6932 29.876C23.6932 27.8791 22.3043 26.256 20.595 26.256C18.8857 26.256 17.501 27.8791 17.501 29.876Z" fill="#263238"/>
<path d="M22.5878 33.4962C22.5412 33.499 22.4933 33.5003 22.444 33.5003C22.3974 33.5003 22.3508 33.499 22.3043 33.4962H22.5878Z" fill="#263238"/>
<path d="M22.6037 33.4923V33.4963H22.5878C22.5931 33.4963 22.5984 33.495 22.6037 33.4923Z" fill="#263238"/>
<path d="M18.3351 29.876C18.3351 31.3388 19.35 32.5222 20.595 32.5222C21.8442 32.5222 22.855 31.3388 22.855 29.876C22.855 28.4173 21.8442 27.2339 20.595 27.2339C19.35 27.2339 18.3351 28.4173 18.3351 29.876Z" fill="#DBDBDB"/>
<path d="M18.5117 29.8764C18.5117 31.2242 19.4445 32.3171 20.595 32.3171C21.7455 32.3171 22.6782 31.2242 22.6782 29.8764C22.6782 28.5328 21.7455 27.4398 20.595 27.4398C19.4445 27.4398 18.5117 28.5328 18.5117 29.8764Z" fill="#A6A6A6"/>
<path d="M20.2703 29.2672H20.9236C20.7018 28.8933 21.4742 27.5907 21.4742 27.5907L21.1291 27.4551C20.899 27.9153 20.7839 28.0509 20.5949 28.0509C20.41 28.0509 20.295 27.9153 20.0649 27.4551L19.7197 27.5907C19.7197 27.5907 20.4922 28.8933 20.2703 29.2672Z" fill="#DBDBDB"/>
<path d="M20.9771 29.3122L21.1826 30.0394C21.4168 29.6778 22.7111 30.1339 22.7111 30.1339L22.7152 29.7066C22.2714 29.5957 22.1276 29.5094 22.0701 29.2998C22.0085 29.0903 22.0824 28.9218 22.3865 28.5232L22.1728 28.1822C22.1728 28.1822 21.351 29.4436 20.9771 29.3122Z" fill="#DBDBDB"/>
<path d="M21.1579 30.114L20.632 30.5659C20.9977 30.7139 21.0264 32.2999 21.0264 32.2999L21.3757 32.1725C21.3305 31.6425 21.3551 31.4535 21.5072 31.3261C21.6592 31.1946 21.8194 31.2234 22.2344 31.4411L22.444 31.0919C22.444 31.0919 21.1702 30.57 21.1579 30.114Z" fill="#DBDBDB"/>
<path d="M20.562 30.5659L20.032 30.114C20.0238 30.57 18.7459 31.0919 18.7459 31.0919L18.9595 31.4411C19.3746 31.2234 19.5348 31.1946 19.6868 31.3261C19.8389 31.4535 19.8635 31.6425 19.8183 32.1725L20.1635 32.2999C20.1635 32.2999 20.1963 30.7139 20.562 30.5659Z" fill="#DBDBDB"/>
<path d="M20.0114 30.0394L20.2127 29.3122C19.8429 29.4436 19.0211 28.1822 19.0211 28.1822L18.8075 28.5232C19.1074 28.9218 19.1814 29.0903 19.1239 29.2998C19.0663 29.5094 18.9225 29.5957 18.4788 29.7107V30.1339C18.4788 30.1339 19.7772 29.6778 20.0114 30.0394Z" fill="#DBDBDB"/>
<path d="M19.9909 29.8591C19.9909 30.2494 20.2621 30.5658 20.595 30.5658C20.9319 30.5658 21.2031 30.2494 21.2031 29.8591C21.2031 29.4687 20.9319 29.1523 20.595 29.1523C20.2621 29.1523 19.9909 29.4687 19.9909 29.8591Z" fill="#DBDBDB"/>
<path d="M40.0551 29.8757C40.0551 31.8152 38.7567 33.3971 37.1172 33.4916C37.1145 33.4943 37.1104 33.4957 37.1049 33.4957H35.1121V26.2557H37.1172V26.2598C38.7567 26.3585 40.0551 27.9404 40.0551 29.8757Z" fill="#263238"/>
<path opacity="0.2" d="M40.0551 29.8757C40.0551 31.8152 38.7567 33.3971 37.1172 33.4916C37.1145 33.4943 37.1104 33.4957 37.1049 33.4957H35.1121V26.2557H37.1172V26.2598C38.7567 26.3585 40.0551 27.9404 40.0551 29.8757Z" fill="black"/>
<path d="M32.0179 29.876C32.0179 31.8771 33.4026 33.5001 35.1119 33.5001C36.8212 33.5001 38.206 31.8771 38.206 29.876C38.206 27.8791 36.8212 26.256 35.1119 26.256C33.4026 26.256 32.0179 27.8791 32.0179 29.876Z" fill="#263238"/>
<path d="M37.1048 33.4962C37.0555 33.499 37.0076 33.5003 36.961 33.5003C36.9117 33.5003 36.8638 33.499 36.8172 33.4962H37.1048Z" fill="#263238"/>
<path d="M37.117 33.4923V33.4964H37.1048C37.1102 33.4964 37.1143 33.495 37.117 33.4923Z" fill="#263238"/>
<path d="M32.852 29.876C32.852 31.3388 33.8628 32.5222 35.1119 32.5222C36.3611 32.5222 37.3719 31.3388 37.3719 29.876C37.3719 28.4173 36.3611 27.2339 35.1119 27.2339C33.8628 27.2339 32.852 28.4173 32.852 29.876Z" fill="#DBDBDB"/>
<path d="M33.0287 29.8764C33.0287 31.2242 33.9614 32.3171 35.1119 32.3171C36.2624 32.3171 37.1951 31.2242 37.1951 29.8764C37.1951 28.5328 36.2624 27.4398 35.1119 27.4398C33.9614 27.4398 33.0287 28.5328 33.0287 29.8764Z" fill="#A6A6A6"/>
<path d="M34.7833 29.2672H35.4367C35.2189 28.8933 35.9873 27.5907 35.9873 27.5907L35.6421 27.4551C35.412 27.9153 35.3011 28.0509 35.1121 28.0509C34.923 28.0509 34.808 27.9153 34.5779 27.4551L34.2368 27.5907C34.2368 27.5907 35.0052 28.8933 34.7833 29.2672Z" fill="#DBDBDB"/>
<path d="M35.4942 29.3122L35.6955 30.0394C35.9298 29.6778 37.2282 30.1339 37.2282 30.1339L37.2323 29.7066C36.7844 29.5957 36.6406 29.5094 36.5831 29.2998C36.5255 29.0903 36.5995 28.9218 36.8995 28.5232L36.6858 28.1822C36.6858 28.1822 35.864 29.4436 35.4942 29.3122Z" fill="#DBDBDB"/>
<path d="M35.6749 30.114L35.1449 30.5659C35.5106 30.7139 35.5434 32.2999 35.5434 32.2999L35.8886 32.1725C35.8434 31.6425 35.868 31.4535 36.0201 31.3261C36.1721 31.1946 36.3324 31.2234 36.7515 31.4411L36.961 31.0919C36.961 31.0919 35.6831 30.57 35.6749 30.114Z" fill="#DBDBDB"/>
<path d="M35.0791 30.5659L34.5491 30.114C34.5409 30.57 33.263 31.0919 33.263 31.0919L33.4725 31.4411C33.8875 31.2234 34.0478 31.1946 34.1998 31.3261C34.356 31.4535 34.3806 31.6425 34.3354 32.1725L34.6806 32.2999C34.6806 32.2999 34.7093 30.7139 35.0791 30.5659Z" fill="#DBDBDB"/>
<path d="M34.5285 30.0394L34.7299 29.3122C34.356 29.4436 33.5383 28.1822 33.5383 28.1822L33.3205 28.5232C33.6246 28.9218 33.6985 29.0903 33.641 29.2998C33.5794 29.5094 33.4356 29.5957 32.9918 29.7107L32.9959 30.1339C32.9959 30.1339 34.2902 29.6778 34.5285 30.0394Z" fill="#DBDBDB"/>
<path d="M34.508 29.8591C34.508 30.2494 34.7751 30.5658 35.112 30.5658C35.4449 30.5658 35.7161 30.2494 35.7161 29.8591C35.7161 29.4687 35.4449 29.1523 35.112 29.1523C34.7751 29.1523 34.508 29.4687 34.508 29.8591Z" fill="#DBDBDB"/>
<path d="M12.0893 28.7864C12.0893 30.7259 11.6785 32.3078 10.1869 32.4023C10.1814 32.4023 10.1759 32.4023 10.1705 32.4023H8.35431V25.1664H10.1869V25.1706C11.6785 25.2651 12.0893 26.847 12.0893 28.7864Z" fill="#263238"/>
<path opacity="0.2" d="M12.0893 28.7864C12.0893 30.7259 11.6785 32.3078 10.1869 32.4023C10.1814 32.4023 10.1759 32.4023 10.1705 32.4023H8.35431V25.1664H10.1869V25.1706C11.6785 25.2651 12.0893 26.847 12.0893 28.7864Z" fill="black"/>
<path d="M10.1705 32.4032C10.1294 32.4059 10.0869 32.4073 10.0431 32.4073C9.99925 32.4073 9.95542 32.4059 9.91159 32.4032H10.1705Z" fill="#263238"/>
<path d="M6.45602 28.7864C6.45602 30.7875 7.30658 32.4064 8.35436 32.4064C9.40214 32.4064 10.2527 30.7875 10.2527 28.7864C10.2527 26.7854 9.40214 25.1664 8.35436 25.1664C7.30658 25.1664 6.45602 26.7854 6.45602 28.7864Z" fill="#263238"/>
<path d="M6.96558 28.7865C6.96558 30.2451 7.59014 31.4326 8.3544 31.4326C9.11867 31.4326 9.73912 30.2451 9.73912 28.7865C9.73912 27.3278 9.11867 26.1444 8.3544 26.1444C7.59014 26.1444 6.96558 27.3278 6.96558 28.7865Z" fill="#DBDBDB"/>
<path d="M7.07645 28.786C7.07645 30.1338 7.64759 31.2226 8.35433 31.2226C9.06107 31.2226 9.63221 30.1338 9.63221 28.786C9.63221 27.4383 9.06107 26.3494 8.35433 26.3494C7.64759 26.3494 7.07645 27.4383 7.07645 28.786Z" fill="#A6A6A6"/>
<path d="M8.153 28.1754H8.55568C8.42009 27.8015 8.89262 26.4989 8.89262 26.4989L8.67895 26.3674C8.53925 26.8276 8.46939 26.9591 8.35434 26.9591C8.23929 26.9591 8.16944 26.8276 8.02563 26.3674L7.81607 26.4989C7.81607 26.4989 8.2886 27.8015 8.153 28.1754Z" fill="#DBDBDB"/>
<path d="M8.58856 28.2244L8.71183 28.9517C8.85564 28.5901 9.65278 29.0421 9.65278 29.0421V28.6189C9.38159 28.508 9.29119 28.4217 9.25832 28.2121C9.22134 28.0026 9.26654 27.8341 9.45144 27.4355L9.31996 27.0945C9.31996 27.0945 8.81866 28.3518 8.58856 28.2244Z" fill="#DBDBDB"/>
<path d="M8.69948 29.0255L8.37488 29.4775C8.60087 29.6254 8.61731 31.2115 8.61731 31.2115L8.83097 31.08C8.80221 30.554 8.81864 30.365 8.91315 30.2335C9.00766 30.1062 9.10627 30.1349 9.36103 30.3486L9.4884 30.0034C9.4884 30.0034 8.70359 29.4816 8.69948 29.0255Z" fill="#DBDBDB"/>
<path d="M8.33392 29.4775L8.00932 29.0255C8.00521 29.4816 7.2204 30.0034 7.2204 30.0034L7.34778 30.3486C7.60253 30.1349 7.70115 30.1062 7.79565 30.2335C7.89016 30.365 7.90659 30.554 7.87783 31.0841L8.0915 31.2115C8.0915 31.2115 8.10793 29.6254 8.33392 29.4775Z" fill="#DBDBDB"/>
<path d="M7.99691 28.9517L8.12018 28.2244C7.89008 28.3518 7.38878 27.0945 7.38878 27.0945L7.2573 27.4355C7.4422 27.8341 7.4874 28.0026 7.45042 28.2121C7.41755 28.4217 7.32715 28.508 7.05185 28.6189L7.05596 29.0421C7.05596 29.0421 7.8531 28.5901 7.99691 28.9517Z" fill="#DBDBDB"/>
<path d="M7.98462 28.7702C7.98462 29.1605 8.14898 29.4769 8.35443 29.4769C8.55987 29.4769 8.72423 29.1605 8.72423 28.7702C8.72423 28.3798 8.55987 28.0634 8.35443 28.0634C8.14898 28.0634 7.98462 28.3798 7.98462 28.7702Z" fill="#DBDBDB"/>
<path d="M40.1907 30.9484C39.9894 30.9484 23.2824 30.9484 22.9824 30.9484C22.6783 30.9484 22.4934 25.1753 19.9911 25.1753C18.6187 25.1753 17.9037 27.5996 18.4091 30.7799C18.4091 30.7799 10.5282 30.4964 10.4337 30.4594C10.3392 30.4225 9.40232 24.7603 7.57794 24.7603C6.5959 24.7603 6.46441 27.2791 6.5055 27.7311C6.5055 27.7311 5.91381 25.4712 7.53685 23.2359C7.61492 23.1332 8.08334 21.9662 8.54355 21.5512C8.54355 21.5512 8.82706 20.6596 9.55846 19.8953C9.55846 19.8953 11.2801 16.5136 12.258 15.7781C13.236 15.0426 17.3203 14.5085 21.1827 14.5003C25.0492 14.4879 28.813 15.0426 29.8649 15.5234C30.9168 16.0041 32.659 17.245 35.4777 20.5445C35.4777 20.5445 37.7911 21.4567 38.543 22.484C39.2991 23.5071 40.0674 25.4465 40.0674 25.4465C40.0674 25.4465 40.6221 26.03 40.5276 27.7393C40.5276 27.7393 40.6427 28.257 40.5852 29.0665C40.5276 29.876 40.3592 30.9484 40.1907 30.9484Z" fill="#FFC727"/>
<path d="M10.0596 19.9156C10.1295 20.0018 11.169 20.1046 14.2919 20.3388C17.4147 20.573 19.387 20.9223 19.4732 20.9017C19.5554 20.8853 19.6417 20.7702 19.6417 20.688C19.6417 20.6018 18.2693 16.4681 17.3284 15.9299C16.6422 15.5313 15.315 15.4656 14.148 15.5888C12.9852 15.7121 12.2702 16.2463 11.7238 16.953C11.1773 17.6597 9.95691 19.7923 10.0596 19.9156Z" fill="#263238"/>
<path d="M18.372 15.6463C18.183 15.745 18.9678 16.7311 19.6992 18.4034C20.295 19.7676 20.5827 20.688 20.6402 20.7045C20.6936 20.725 35.2434 20.6017 35.2927 20.5853C35.3379 20.5648 32.2644 16.9324 30.1729 15.8066C29.684 15.5436 27.3542 15.3751 24.5971 15.3341C21.8441 15.2971 18.6062 15.5231 18.372 15.6463Z" fill="#263238"/>
<path d="M18.8856 15.8433C18.7706 15.9706 19.5759 17.1828 20.0854 18.4401C20.5908 19.6934 21.1332 20.1248 21.5236 20.1741C21.9098 20.2234 27.3624 20.1618 29.3224 20.133C31.2864 20.1042 34.2326 20.133 34.2983 20.0344C34.3599 19.9358 33.7477 18.9455 32.6753 17.9183C31.6028 16.8869 30.3784 16.0158 30.1072 15.9049C29.5566 15.683 26.6556 15.5351 24.9011 15.5351C22.9535 15.5351 19.0171 15.6912 18.8856 15.8433Z" fill="#37474F"/>
<path opacity="0.1" d="M34.2983 20.0342C34.2326 20.1329 31.2864 20.1041 29.3224 20.1329C27.3624 20.1616 21.9098 20.2233 21.5236 20.1739C21.1332 20.1246 20.5908 19.6932 20.0854 18.44C19.5759 17.1826 18.7706 15.9705 18.8856 15.8431C18.976 15.7445 20.7593 15.6377 22.5179 15.5801C22.0207 16.0075 21.7578 16.6279 22.3043 17.1908C23.0521 17.9592 27.3007 19.159 33.3984 18.6824C34.0148 19.3932 34.3435 19.9603 34.2983 20.0342Z" fill="white"/>
<path d="M18.0598 20.5067C18.0927 20.5108 18.4707 18.4687 18.4625 18.4235C18.4542 18.3824 17.7352 16.6032 17.201 16.217C16.6627 15.8307 15.0479 15.7239 13.9755 15.8842C12.903 16.0485 12.4223 16.4142 11.995 16.9237C11.5635 17.4291 10.3308 19.6808 10.3514 19.763C10.3596 19.8082 12.1141 19.9356 13.9837 20.1041C15.9272 20.2807 17.9981 20.4985 18.0598 20.5067Z" fill="#37474F"/>
<path opacity="0.1" d="M18.2036 19.8539C18.1337 20.2196 18.0721 20.5072 18.0598 20.5072C17.9981 20.499 15.9272 20.2813 13.9837 20.1046C12.1141 19.9361 10.3596 19.8087 10.3514 19.7635C10.3267 19.6813 11.5635 17.4296 11.995 16.9242C12.4223 16.4147 12.903 16.049 13.9755 15.8847C14.1563 15.86 14.3494 15.8395 14.5548 15.8271C13.3673 16.2052 12.5004 17.0146 13.3797 18.0213C14.1604 18.913 16.2518 19.5745 18.2036 19.8539Z" fill="white"/>
<path d="M13.1743 20.0304C13.2071 20.0304 13.0839 19.9523 13.0674 19.9154C13.051 19.8784 13.8769 17.0144 14.3371 15.9338L14.4768 15.8311C14.4768 15.8311 13.9509 15.8434 13.7249 15.9297C13.7249 15.9297 13.7577 15.9379 13.7701 15.9913C13.7865 16.0406 13.2975 17.2692 13.0674 18.0211C12.8332 18.769 12.5086 19.8702 12.4881 19.8866C12.4716 19.9071 12.2826 19.9564 12.2826 19.9564C12.2826 19.9564 12.9072 20.0386 13.1743 20.0304Z" fill="#263238"/>
<path d="M22.9946 20.4499H24.4903C24.4903 20.4499 24.3917 20.1212 24.3506 20.0719C24.3095 20.0267 23.9233 19.9568 23.7425 19.9568C23.5617 19.9568 23.1754 20.0267 23.1343 20.0719C23.0932 20.1212 22.9946 20.4499 22.9946 20.4499Z" fill="#263238"/>
<path d="M23.7054 20.0513C23.7054 20.0513 24.5806 19.7555 24.6627 19.7432C24.7449 19.7308 28.254 19.7473 28.254 19.7473L28.2622 19.813C28.2622 19.813 24.8723 19.8911 24.8189 19.8993C24.7614 19.9075 23.73 20.2773 23.73 20.2773L23.7054 20.0513Z" fill="#263238"/>
<path d="M28.5951 20.4499H30.0907C30.0907 20.4499 29.9921 20.1212 29.951 20.0719C29.9099 20.0267 29.5237 19.9568 29.3429 19.9568C29.1621 19.9568 28.7759 20.0267 28.7348 20.0719C28.6937 20.1212 28.5951 20.4499 28.5951 20.4499Z" fill="#263238"/>
<path d="M29.3059 20.0513C29.3059 20.0513 30.177 19.7555 30.2633 19.7432C30.3455 19.7308 33.8545 19.7473 33.8545 19.7473L33.8586 19.813C33.8586 19.813 30.4728 19.8911 30.4194 19.8993C30.3619 19.9075 29.3265 20.2773 29.3265 20.2773L29.3059 20.0513Z" fill="#263238"/>
<g opacity="0.2">
<path d="M20.64 20.7053C20.5702 20.7874 20.5168 20.8819 20.4962 20.9847C20.4757 21.0915 20.5168 21.1942 20.5373 21.297C20.5907 21.5024 20.6483 21.7078 20.714 21.9092C20.8619 22.3735 20.9441 22.694 21.4865 22.7844C22.3206 22.9323 23.1547 23.0967 23.9888 23.2569L25.238 23.4993C25.5502 23.5487 25.8625 23.6432 26.1748 23.6267C27.991 23.6103 32.2766 23.5856 34.138 23.5733C34.9515 23.5692 37.1621 23.5487 37.9593 23.5445C38.1729 23.5445 38.3825 23.5404 38.5962 23.5363C38.6537 23.5404 38.6866 23.4952 38.7153 23.45C38.7934 23.3144 38.8427 23.1583 38.8879 23.0063C38.8345 23.183 38.7934 23.3761 38.6701 23.5199C38.6537 23.5404 38.6208 23.5445 38.5962 23.5445C38.3825 23.5569 38.1729 23.561 37.9593 23.5651C37.1704 23.5856 34.9597 23.6267 34.138 23.6391C31.574 23.6719 28.7511 23.6884 26.1748 23.7007C25.8543 23.7171 25.5379 23.6185 25.2256 23.5692L23.9765 23.3186C23.1424 23.1501 22.3124 22.9775 21.4783 22.8255C20.9277 22.7228 20.8373 22.3982 20.6935 21.9133C20.6318 21.712 20.5784 21.5065 20.5291 21.3011C20.5044 21.1983 20.4675 21.0915 20.488 20.9847C20.5127 20.8819 20.5702 20.7874 20.64 20.7053Z" fill="black"/>
<path d="M24.938 24.6909C24.6257 24.7443 24.3217 24.847 24.0217 24.9415C23.7547 25.0278 23.3848 25.1511 23.126 25.2538C22.6822 25.4223 22.2467 25.6072 21.8152 25.8085C21.7865 25.8249 21.7413 25.8414 21.7207 25.8701C21.6385 25.9564 21.5851 26.0632 21.5317 26.166C21.5564 26.092 21.5892 26.018 21.6303 25.9482C21.6673 25.8783 21.7207 25.8085 21.7947 25.7756C22.4973 25.3976 23.2369 25.0935 24.0053 24.8799C24.3094 24.8018 24.6175 24.7114 24.938 24.6909Z" fill="black"/>
<path d="M18.4624 20.7752C18.372 21.1327 18.2775 21.4861 18.1953 21.8476C18.1706 21.9339 18.1789 22.0243 18.183 22.1147C18.1789 22.2174 18.1994 22.3284 18.1871 22.4311C18.1501 22.5667 18.0926 22.7968 18.0556 22.9324C17.9611 23.3762 17.809 23.8199 17.8173 24.2801C17.8173 24.4527 17.8173 24.9252 17.8173 25.106C17.8214 26.3593 17.8132 27.7111 17.8049 28.9685C17.8132 29.1534 17.8419 29.3342 17.8666 29.5191C17.8871 29.9341 17.8789 30.3655 18.0145 30.7641C17.8625 30.3696 17.8584 29.9341 17.8255 29.5191C17.7967 29.3506 17.768 29.1534 17.7556 28.9726C17.7433 27.7152 17.7351 26.3634 17.7392 25.106C17.7433 24.8513 17.7433 24.3911 17.7433 24.1404C17.7721 23.7213 17.9036 23.3186 18.0022 22.9201C18.0392 22.7845 18.1008 22.5503 18.1419 22.4188C18.1583 22.2298 18.1131 22.0284 18.1624 21.8394C18.2528 21.4819 18.3555 21.1286 18.4624 20.7752Z" fill="black"/>
<path d="M12.1962 20.1755C11.9661 20.6645 11.6579 21.1411 11.625 21.6958C11.5059 21.9424 11.399 22.1971 11.3127 22.4601C11.2265 22.7149 11.1566 22.982 11.1402 23.2531C11.1402 23.7955 11.2223 24.342 11.284 24.8803C11.3908 25.698 11.51 26.5074 11.6497 27.3169C11.7565 27.8346 11.7688 28.4345 12.2208 28.7838C12.5331 29.0427 12.9358 29.1741 13.3385 29.2029L13.7452 29.2358C14.2876 29.281 17.242 29.4782 17.846 29.5193C16.7489 29.47 15.6559 29.4207 14.5629 29.3549C14.074 29.3138 13.3919 29.3138 12.9193 29.2111C12.3852 29.0796 11.851 28.7057 11.7319 28.1428C11.6045 27.6045 11.5223 27.0621 11.4401 26.5198C11.2881 25.4309 11.095 24.3461 11.0826 23.249C11.1319 22.6943 11.3497 22.1766 11.588 21.6835C11.625 21.1576 11.9578 20.6522 12.1962 20.1755Z" fill="black"/>
</g>
<path opacity="0.1" d="M40.585 29.0665C40.5275 29.8759 40.3591 30.9484 40.1906 30.9484H22.9823C22.6782 30.9484 22.4933 25.1753 19.991 25.1753C18.6186 25.1753 17.9036 27.5996 18.409 30.7799C18.409 30.7799 10.5281 30.4964 10.4335 30.4594C10.339 30.4224 9.4022 24.7603 7.57372 24.7603C6.59578 24.7603 6.4643 27.2791 6.50539 27.7311C6.50539 27.7311 6.34925 27.1353 6.41499 26.2518C6.48484 25.7259 6.88752 24.2426 7.62302 24.2426C8.36674 24.2426 8.69546 25.089 8.92145 25.1465C9.14744 25.1999 9.36111 24.9945 9.36111 24.4973C9.36111 23.996 9.22962 23.3222 9.22141 23.2934C9.21319 23.2646 16.7819 23.3674 16.9997 23.3756C17.2174 23.3879 18.8281 23.6139 18.8569 23.6303C18.8857 23.6509 19.0007 23.8933 19.0007 23.9221C18.9966 23.9508 18.6145 24.4439 18.4624 24.9C18.409 25.0561 18.787 24.7726 18.8569 24.7767C18.9268 24.7767 18.6021 25.2903 18.5734 25.5287C18.5652 25.615 19.0952 24.5959 20.069 24.5959C21.0429 24.5959 21.8647 25.6602 22.4522 27.127C22.5467 27.3654 24.2396 26.7244 24.3341 26.7244C24.4286 26.7244 37.4746 26.5107 38.132 26.4902C38.7894 26.4696 39.3647 26.2436 39.4099 26.219C39.4551 26.1902 39.5414 25.389 40.0673 25.4465C40.0673 25.4465 40.622 26.03 40.5275 27.7393C40.5275 27.7393 40.6426 28.257 40.585 29.0665Z" fill="black"/>
<path d="M29.5649 25.0645C29.5649 25.1385 31.6522 25.1056 33.6738 25.0769C35.5681 25.0522 37.4089 25.0358 37.4089 24.9495C37.4089 24.8591 35.5557 24.8673 33.6533 24.892C31.6399 24.9125 29.5649 24.9536 29.5649 25.0645Z" fill="#EBEBEB"/>
<path opacity="0.2" d="M37.4089 24.9494C37.4089 25.0357 35.5681 25.0521 33.6738 25.0768C31.6522 25.1056 29.5649 25.1384 29.5649 25.0645C29.5649 25.0439 29.6183 25.0275 29.7169 25.0152H29.7128C29.7128 25.0727 31.755 25.048 33.7314 25.0275C35.5722 25.0069 37.3555 24.9946 37.3842 24.933C37.4007 24.9385 37.4089 24.9439 37.4089 24.9494Z" fill="black"/>
<path d="M33.682 24.3375C33.23 24.3375 33.0821 24.7936 33.1232 25.1099C33.1643 25.4263 33.378 25.7345 33.8135 25.714C34.3312 25.6893 34.3805 25.2168 34.3518 24.9949C34.323 24.7689 34.134 24.3375 33.682 24.3375Z" fill="#EBEBEB"/>
<path opacity="0.2" d="M34.3312 25.3154C34.2778 25.5085 34.1381 25.7016 33.8135 25.714C33.378 25.7345 33.1643 25.4263 33.1232 25.1099C33.0821 24.7936 33.23 24.3375 33.682 24.3375C33.6984 24.3375 33.7135 24.3375 33.7272 24.3375C33.3492 24.3662 33.2259 24.7607 33.2588 25.0401C33.2999 25.3318 33.493 25.6112 33.8916 25.5907C34.1381 25.5825 34.2655 25.4592 34.3312 25.3154Z" fill="black"/>
<path d="M28.9279 26.2483C28.9279 26.3264 31.3357 26.2935 33.6614 26.2647C35.8474 26.236 37.9635 26.2195 37.9635 26.1332C37.9635 26.047 35.835 26.0552 33.6409 26.0757C31.3193 26.1004 28.9279 26.1415 28.9279 26.2483Z" fill="#EBEBEB"/>
<path opacity="0.2" d="M37.9635 26.1334C37.9635 26.2238 35.8474 26.2361 33.6615 26.2648C31.3358 26.2936 28.9279 26.3265 28.9279 26.2484C28.9279 26.232 28.9896 26.2155 29.1046 26.2032C29.1046 26.2607 31.455 26.2361 33.7313 26.2155C35.8515 26.195 37.906 26.1827 37.9389 26.121C37.9553 26.1238 37.9635 26.1279 37.9635 26.1334Z" fill="black"/>
<path d="M24.2521 28.5854C24.3507 28.5073 26.1668 28.7292 34.5203 28.5854C38.4033 28.5196 40.3674 28.2361 40.4454 28.2402C40.5194 28.2484 40.5276 28.4909 40.2975 28.6593C40.1619 28.7579 37.4089 29.2058 34.5491 29.2058C32.0098 29.2058 26.5531 29.2469 25.6779 29.1319C24.8068 29.0209 24.4822 28.8771 24.3794 28.8237C24.2767 28.7662 24.1575 28.6634 24.2521 28.5854Z" fill="#EBEBEB"/>
<g opacity="0.2">
<path d="M40.4905 28.3596C40.4822 28.45 40.4288 28.5651 40.2973 28.6596C40.1617 28.7582 37.4087 29.2061 34.5489 29.2061C32.0096 29.2061 26.5529 29.243 25.6777 29.1321C24.8025 29.0212 24.482 28.8773 24.3793 28.8239C24.2765 28.7664 24.1574 28.6637 24.2478 28.5856C24.256 28.5801 24.2738 28.576 24.3012 28.5733C24.3341 28.6062 24.3751 28.6308 24.4121 28.6514C24.5148 28.7089 24.8395 28.8486 25.7147 28.9636C26.594 29.0746 32.0589 29.0376 34.6023 29.0376C37.4663 29.0376 40.2234 28.5897 40.359 28.4911C40.4165 28.45 40.4576 28.4048 40.4905 28.3596Z" fill="black"/>
</g>
<path d="M27.6952 28.4507C27.954 28.3603 32.1369 28.3397 34.2654 28.3151C36.6527 28.2863 39.3687 28.2042 39.5372 28.2658C39.7056 28.3274 39.7467 28.7465 39.7056 29.0958C39.6645 29.4492 39.3481 29.7902 38.5716 29.8929C37.7991 29.9998 35.9911 30.086 34.2037 30.1271C32.4205 30.1682 29.5771 30.2052 28.8005 30.1271C28.028 30.0491 27.5719 29.5971 27.4199 29.2807C27.2637 28.9643 27.4486 28.5329 27.6952 28.4507Z" fill="#EBEBEB"/>
<path d="M27.7898 28.4909C28.0445 28.4087 32.1617 28.3922 34.2614 28.3676C36.6117 28.3429 39.2866 28.2649 39.451 28.3224C39.6195 28.3799 39.6605 28.7662 39.6194 29.0908C39.5743 29.4154 39.2661 29.7277 38.5018 29.8263C37.7375 29.9208 35.9584 29.9988 34.1997 30.0399C32.4411 30.0769 29.6429 30.1098 28.8786 30.0399C28.1144 29.9701 27.6706 29.551 27.5186 29.2592C27.3666 28.9675 27.5473 28.5689 27.7898 28.4909Z" fill="#263238"/>
<path d="M31.1508 26.6917C31.1221 26.7122 31.1426 28.1586 31.1796 28.175C31.2125 28.1873 37.0842 28.0518 37.1088 28.0312C37.1376 28.0107 37.0595 26.5931 37.0554 26.5766C37.0513 26.5561 31.196 26.6629 31.1508 26.6917Z" fill="white"/>
<path d="M31.948 28.1624C31.4877 28.1706 31.1878 28.1788 31.1796 28.1747C31.1426 28.1583 31.1221 26.7119 31.1508 26.6914C31.159 26.6873 31.4549 26.6749 31.9069 26.6626L31.948 28.1624Z" fill="#455A64"/>
<path d="M18.4624 16.021C18.3145 15.7867 17.9817 15.4293 17.5585 15.2238C17.1352 15.0184 15.315 14.9156 15.315 14.9156C15.315 14.9156 16.975 14.9485 17.4804 15.0554C17.9899 15.1622 18.4624 15.684 18.4624 15.684V16.021Z" fill="#263238"/>
<path d="M17.846 21.0751C17.8255 21.0422 17.6775 21.034 17.5625 20.9642C17.4516 20.8943 17.2666 20.5574 17.242 20.4916C17.2214 20.4259 17.4844 20.0355 17.4844 19.7479C17.4844 19.4603 16.8763 18.9713 16.716 18.9343C16.5558 18.8974 15.4916 18.9631 15.3765 18.9795C15.2656 19.0001 14.5506 19.4069 14.5506 19.6246C14.5506 19.8424 14.7643 20.3149 15.0766 20.4711C15.3847 20.6272 16.1942 20.6108 16.3134 20.6396C16.4284 20.6683 17.1516 21.9421 17.2543 22.0119C17.357 22.0859 17.6077 22.0736 17.6488 22.0654C17.6899 22.0571 17.8419 21.8476 17.8789 21.7654C17.9159 21.6791 17.8953 21.1614 17.846 21.0751Z" fill="#263238"/>
<path d="M17.4105 19.5425C17.4105 19.7808 17.0941 20.1095 16.8516 20.1752C16.6133 20.241 15.6395 20.2369 15.3231 20.2163C15.0067 20.1958 14.6698 19.9287 14.5794 19.8013C14.5588 19.7315 14.5506 19.6739 14.5506 19.6246C14.5506 19.411 15.2656 19.0001 15.3765 18.9795C15.4916 18.9631 16.5558 18.8974 16.716 18.9343C16.8434 18.9631 17.2461 19.2713 17.4105 19.5425Z" fill="#FFC727"/>
<path d="M17.6488 22.0652L16.5763 20.4955L17.846 21.8268L17.6488 22.0652Z" fill="white"/>
<path d="M14.9081 19.3653C14.9081 19.3653 15.3066 19.1105 15.4011 19.0818C15.4915 19.053 16.4448 19.0037 16.5763 19.0119" fill="white"/>
<g opacity="0.1">
<path d="M8.54349 21.551C12.4758 21.6743 16.4409 21.9332 20.3239 22.5742C20.5841 22.6207 20.843 22.67 21.1004 22.7221C20.8402 22.6892 20.58 22.6536 20.3197 22.6152C16.4409 22.1427 12.4347 21.888 8.54349 21.551Z" fill="black"/>
<path d="M29.3512 20.7743C29.9059 21.0167 30.44 21.292 30.9578 21.6043C31.4632 21.9125 31.9809 22.3193 32.1863 22.8986C32.1288 22.7589 32.0425 22.6356 31.948 22.5206C31.6645 22.1672 31.2988 21.9043 30.9126 21.6742C30.4688 21.3989 29.8114 21.0373 29.3512 20.7743Z" fill="black"/>
</g>
<path opacity="0.3" d="M30.6618 20.7747C31.1837 21.0213 31.7096 21.313 32.1945 21.6253C32.6711 21.9417 33.1683 22.3402 33.3696 22.899C33.1149 22.369 32.6259 22.0115 32.1493 21.6951C31.7261 21.4157 31.1015 21.0418 30.6618 20.7747Z" fill="white"/>
<path opacity="0.2" d="M12.0606 22.1671C11.8922 22.3643 11.7895 22.8122 11.8018 22.9437C11.8182 23.0752 11.9127 23.1574 12.0237 23.1615C12.1387 23.1656 12.262 22.9725 12.3359 22.7547C12.4058 22.541 12.3853 22.1835 12.3359 22.1671C12.2825 22.1548 12.1387 22.0808 12.0606 22.1671Z" fill="black"/>
<path d="M11.3702 22.7056C11.4072 22.7425 12.4303 22.8699 12.4673 22.8617C12.5002 22.8535 12.5906 22.6275 12.5372 22.5659C12.4837 22.5042 11.4894 22.3933 11.4236 22.4097C11.362 22.4262 11.3168 22.6604 11.3702 22.7056Z" fill="#DBDBDB"/>
<path d="M12.5291 22.7542C12.5085 22.8117 12.4839 22.8569 12.4674 22.861C12.4304 22.8693 11.4073 22.7419 11.3703 22.7049C11.3457 22.6844 11.3416 22.6227 11.3498 22.5611C11.3539 22.5775 11.3621 22.594 11.3703 22.6022C11.4114 22.6351 12.3811 22.746 12.5291 22.7542Z" fill="#C7C7C7"/>
<path d="M18.4378 30.7804C18.4378 30.7804 18.1173 31.0763 17.5914 30.7475C17.5338 30.4681 17.501 30.1764 17.501 29.8764C17.501 28.9067 17.8297 28.0233 18.3597 27.3741C18.368 28.1589 18.179 29.519 18.4378 30.7804Z" fill="#263238"/>
<g opacity="0.4">
<path d="M7.10938 24.037C7.27784 23.7699 7.45042 23.507 7.62299 23.2399C7.88186 22.6605 8.19414 22.0236 8.62147 21.5182C8.78994 21.0663 9.25014 20.2897 9.58296 19.9281C10.1459 18.8433 10.7376 17.7709 11.4443 16.7724C11.7237 16.4067 11.9949 16.0081 12.3976 15.7616C12.8044 15.5397 13.2564 15.4206 13.7001 15.3055C13.996 15.2274 14.2959 15.1617 14.5959 15.1083C13.8645 15.3055 13.1126 15.4863 12.4551 15.8561C12.0771 16.1026 11.8223 16.493 11.5594 16.8546C11.2183 17.3518 10.906 17.8736 10.602 18.3995C10.2979 18.9296 10.0021 19.4679 9.72267 20.0103C9.31177 20.4787 8.98306 21.0211 8.7283 21.5881C8.29686 22.0853 7.97225 22.6852 7.67641 23.2769C7.4874 23.5316 7.3025 23.7864 7.10938 24.037Z" fill="white"/>
<path d="M20.7715 20.7948C25.049 20.7085 29.6633 20.7455 33.9325 20.651C34.3681 20.6346 34.857 20.614 35.2926 20.5853C32.9217 20.8523 30.4235 20.84 28.0362 20.8811C25.6859 20.8893 23.1178 20.877 20.7715 20.7948Z" fill="white"/>
<path d="M25.1149 26.6296C27.1324 26.5556 30.1977 26.5022 32.248 26.457C34.6271 26.4077 37.0062 26.3995 39.3812 26.2557C37.0514 26.531 34.5984 26.5556 32.2522 26.6214C29.9388 26.6584 27.42 26.6789 25.1149 26.6296Z" fill="white"/>
<path d="M26.6927 23.0057C27.424 23.3508 28.2212 24.3945 27.5309 25.1341C27.0666 25.6518 26.2037 25.5861 25.6243 25.3272C26.1996 25.4628 26.9967 25.4998 27.4117 25.0273C28.0198 24.3452 27.2679 23.4371 26.6927 23.0057Z" fill="white"/>
<path d="M26.0435 25.8323C26.7091 25.9967 27.3912 26.6788 26.6229 27.2253C26.5242 27.2951 26.4133 27.3568 26.2982 27.3978C25.8093 27.5499 25.2381 27.5211 24.7944 27.2623C25.3121 27.4266 26.0764 27.4225 26.5284 27.0897C27.2063 26.6418 26.5242 26.0707 26.0435 25.8323Z" fill="white"/>
<path d="M37.8567 23.3878C37.8814 23.9754 38.2635 24.6986 38.7689 25.0109C38.9785 25.1423 39.2332 25.204 39.4428 25.0437C39.5414 24.9698 39.6195 24.8588 39.6564 24.7314C39.6564 24.867 39.5948 25.0026 39.4921 25.1013C39.2825 25.3272 38.9333 25.2903 38.6908 25.1423C38.132 24.8383 37.7211 24.0124 37.8567 23.3878Z" fill="white"/>
<path d="M39.607 25.9683C39.5988 26.2888 39.907 27.3859 40.3467 26.8763C40.3918 26.8147 40.4288 26.749 40.4494 26.6668C40.474 26.8394 40.3918 27.0243 40.2316 27.1147C39.681 27.3242 39.4262 26.3463 39.607 25.9683Z" fill="white"/>
</g>
<path d="M38.2799 22.784C37.7786 22.858 37.8731 23.7003 38.0908 24.1441C38.3086 24.5919 38.7483 25.0645 39.2044 25.0645C39.6646 25.0645 39.7426 24.2591 39.3687 23.5606C39.0565 22.9812 38.6702 22.7265 38.2799 22.784Z" fill="white"/>
<path fill-rule="evenodd" clip-rule="evenodd" d="M39.2046 25.1058C38.732 25.1058 38.2759 24.6168 38.0541 24.1649C37.8815 23.8156 37.7993 23.2732 37.9596 22.9733C38.0253 22.8418 38.1321 22.7637 38.2759 22.7432C38.6951 22.6815 39.0977 22.965 39.4059 23.5403C39.6648 24.0293 39.7223 24.6004 39.5415 24.9045C39.4634 25.036 39.3484 25.1058 39.2046 25.1058ZM38.2883 22.8253C38.1732 22.8418 38.0869 22.9034 38.0294 23.0102C37.8856 23.2855 37.9678 23.8033 38.128 24.1279C38.3417 24.5593 38.769 25.0236 39.2046 25.0236C39.3196 25.0236 39.4059 24.9702 39.4717 24.8634C39.6401 24.584 39.5785 24.0416 39.3319 23.5814C39.0402 23.039 38.6704 22.7678 38.2883 22.8253Z" fill="#C7C7C7"/>
<path fill-rule="evenodd" clip-rule="evenodd" d="M38.3292 23.0062C38.8017 22.85 39.3359 23.7704 39.4098 24.1649C39.566 24.847 39.0565 25.0401 38.6168 24.5635C38.3538 24.2717 38.2141 23.8937 38.1771 23.5116C38.1607 23.339 38.1443 23.0925 38.3292 23.0062ZM38.3292 23.0062C38.1443 23.0925 38.173 23.339 38.21 23.5075C38.3086 23.9307 38.588 24.3375 38.9702 24.547C39.0236 24.5717 39.0811 24.5922 39.1386 24.5758C39.1551 24.5799 39.1879 24.5224 39.1962 24.4484C39.2701 24.0211 38.9003 22.85 38.3292 23.0062Z" fill="#DBDBDB"/>
<path d="M25.3038 22.7845C24.3875 22.9119 24.178 23.7666 24.5601 24.3994C25.0943 25.291 26.1749 25.4923 26.8735 25.3157C27.6542 25.1143 27.8144 24.2761 27.2145 23.5776C26.6886 22.9653 25.9818 22.69 25.3038 22.7845Z" fill="white"/>
<path fill-rule="evenodd" clip-rule="evenodd" d="M26.3844 25.4139C25.7065 25.4139 24.9381 25.1098 24.5272 24.4236C24.3135 24.0703 24.2807 23.647 24.4368 23.3183C24.5888 23.0019 24.8929 22.8006 25.2997 22.7431C26.0105 22.6445 26.7214 22.9403 27.2473 23.5525C27.5678 23.9265 27.6952 24.3702 27.576 24.74C27.4815 25.0482 27.235 25.266 26.8816 25.3564C26.7296 25.3933 26.5611 25.4139 26.3844 25.4139ZM25.312 22.8253C24.934 22.8787 24.6505 23.0636 24.5108 23.3512C24.367 23.6594 24.3998 24.0497 24.5971 24.3784C25.0942 25.2084 26.1379 25.4591 26.8611 25.2742C27.1857 25.192 27.4117 24.9948 27.498 24.7154C27.6048 24.3743 27.4898 23.9593 27.1857 23.606C26.6762 23.0143 25.9941 22.7307 25.312 22.8253Z" fill="#C7C7C7"/>
<path fill-rule="evenodd" clip-rule="evenodd" d="M25.4886 23.0675C26.0639 22.9812 26.6309 23.2689 26.9925 23.7126C27.3007 24.0701 27.3582 24.6865 26.9227 24.9741C26.5159 25.2247 26.0022 25.1672 25.5913 24.9864C25.3202 24.8549 25.0859 24.6495 24.9421 24.3906C24.6093 23.8565 24.8189 23.1456 25.4886 23.0675ZM25.4886 23.0675C24.8394 23.1456 24.6627 23.8523 25.0449 24.3249C25.3654 24.7563 25.9283 24.9453 26.446 24.8837C27.0541 24.8344 27.1979 24.2715 26.8939 23.7866C26.7501 23.5565 26.5446 23.3552 26.3022 23.2196C26.0557 23.0881 25.768 23.0264 25.4886 23.0675Z" fill="#DBDBDB"/>
<path d="M39.9852 25.6027C39.7058 25.5493 39.6031 26.0177 39.6401 26.293C39.6771 26.5724 39.8291 26.9011 40.0715 26.9833C40.318 27.0655 40.503 26.6505 40.429 26.2108C40.3674 25.8451 40.203 25.6397 39.9852 25.6027Z" fill="white"/>
<path fill-rule="evenodd" clip-rule="evenodd" d="M40.1331 27.0366C40.1084 27.0366 40.0838 27.0325 40.0591 27.0243C39.7961 26.938 39.6359 26.5887 39.5989 26.3011C39.5701 26.0792 39.6236 25.7669 39.7674 25.6313C39.8331 25.5697 39.9112 25.545 39.9934 25.5615C40.2358 25.6067 40.4043 25.8327 40.47 26.2025C40.5193 26.5189 40.4454 26.8394 40.2892 26.975C40.244 27.0161 40.1906 27.0366 40.1331 27.0366ZM39.9441 25.6396C39.9002 25.6396 39.8605 25.656 39.8249 25.6889C39.7016 25.808 39.6564 26.0915 39.6811 26.2888C39.7181 26.5517 39.8578 26.8681 40.0838 26.9462C40.1385 26.9654 40.1892 26.9544 40.2358 26.9133C40.3508 26.8147 40.4412 26.5394 40.3878 26.2189C40.3303 25.882 40.1865 25.6806 39.981 25.6437C39.9673 25.6409 39.955 25.6396 39.9441 25.6396Z" fill="#C7C7C7"/>
<path d="M39.9728 25.73C39.6564 25.7916 39.8413 26.7161 40.1249 26.7408C40.3632 26.638 40.3015 25.7135 39.9728 25.73ZM39.9728 25.73C40.3139 25.7135 40.4823 26.7654 40.129 26.8229C39.8003 26.7818 39.7427 26.2271 39.8044 25.9724C39.8249 25.8779 39.8578 25.7382 39.9728 25.73Z" fill="#DBDBDB"/>
<path d="M24.7656 25.8328C24.0506 26.0423 23.9849 26.6053 24.3588 26.9463C24.8806 27.4229 25.76 27.3942 26.29 27.1846C26.8858 26.9463 26.9187 26.3998 26.364 26.0505C25.8791 25.7465 25.2874 25.6766 24.7656 25.8328Z" fill="white"/>
<path fill-rule="evenodd" clip-rule="evenodd" d="M25.5051 27.3736C25.0203 27.3736 24.5888 27.2093 24.33 26.9751C24.141 26.8025 24.0588 26.5724 24.1081 26.3546C24.1656 26.0999 24.3957 25.8985 24.7532 25.7917C25.3038 25.6273 25.8996 25.7095 26.3845 26.0177C26.668 26.1944 26.82 26.4368 26.7953 26.6751C26.7748 26.9052 26.5981 27.1066 26.3064 27.2216C26.0352 27.3284 25.764 27.3736 25.5051 27.3736ZM25.3202 25.7917C25.1394 25.7917 24.9545 25.8164 24.7737 25.8698C24.4491 25.9684 24.2396 26.1451 24.1903 26.3752C24.1451 26.5601 24.219 26.7614 24.3875 26.9176C24.8724 27.3572 25.7229 27.3654 26.2735 27.1435C26.5365 27.0408 26.6967 26.8682 26.7173 26.6669C26.7337 26.4615 26.5981 26.2478 26.3434 26.0875C26.0311 25.8903 25.6777 25.7917 25.3202 25.7917Z" fill="#C7C7C7"/>
<path fill-rule="evenodd" clip-rule="evenodd" d="M26.0845 26.1656C26.4913 26.445 26.3311 26.7943 25.8955 26.8929C25.5298 26.9874 25.1066 27.0038 24.7697 26.8148C24.3054 26.556 24.4821 26.0999 24.9423 25.9807C24.6423 26.0505 24.3424 26.33 24.5149 26.6505C24.7368 27.0244 25.2217 27.1312 25.6285 27.1065C25.8421 27.0819 26.0517 27.0408 26.2366 26.9175C26.5941 26.6751 26.4749 26.2683 26.1256 26.0957C25.7764 25.9067 25.3573 25.8698 24.9792 25.9684C25.3532 25.8698 25.7682 25.9478 26.0845 26.1656Z" fill="#DBDBDB"/>
</svg>
