<svg width="16" height="17" viewBox="0 0 16 17" fill="none" xmlns="http://www.w3.org/2000/svg">
<path d="M8 16.5C12.4183 16.5 16 12.9183 16 8.5C16 4.08172 12.4183 0.5 8 0.5C3.58172 0.5 0 4.08172 0 8.5C0 12.9183 3.58172 16.5 8 16.5Z" fill="#00BA00"/>
<path fill-rule="evenodd" clip-rule="evenodd" d="M5.50193 12.4018L2.57607 9.27031C2.1755 8.84158 2.19849 8.16328 2.62722 7.76272C3.05594 7.36215 3.73424 7.3852 4.13481 7.81387L6.39169 10.2294L9.96404 6.8916C9.99616 6.86155 10.0297 6.83402 10.0644 6.8087L11.7444 5.23913C12.1731 4.83856 12.8515 4.86161 13.252 5.29034C13.6525 5.719 13.6295 6.39736 13.2008 6.79793L8.06987 11.5919L8.06438 11.5861L6.28952 13.2444L5.50193 12.4018Z" fill="white"/>
</svg>
